<svg id="Capa_1" enable-background="new 0 0 512 512" height="512" viewBox="0 0 512 512" width="512" xmlns="http://www.w3.org/2000/svg"><g><path d="m241.414 256.023c.007 4.007 1.574 7.771 4.412 10.599 9.407 9.377 25.611 2.675 25.588-10.65-.007-4.007-1.573-7.771-4.411-10.599-9.518-9.483-25.611-2.569-25.589 10.65z"/><path d="m256 0c-141.483 0-256 114.497-256 256 0 141.483 114.497 256 256 256 141.483 0 256-114.497 256-256 0-141.483-114.497-256-256-256zm0 61c8.284 0 15 6.716 15 15s-6.716 15-15 15-15-6.716-15-15 6.716-15 15-15zm-180 210c-8.284 0-15-6.716-15-15s6.716-15 15-15 15 6.716 15 15-6.716 15-15 15zm180 180c-8.284 0-15-6.716-15-15s6.716-15 15-15 15 6.716 15 15-6.716 15-15 15zm107.048-282.172-66.522 66.752c15.283 29.949-6.617 65.417-40.114 65.417-30.89 0-52.629-30.47-42.54-59.715l-43.793-36.617c-6.355-5.314-7.199-14.774-1.886-21.13 5.315-6.354 14.774-7.197 21.13-1.886l43.27 36.18c12.751-7.958 28.647-8.934 42.17-2.911l67.034-67.266c5.849-5.868 15.347-5.884 21.213-.037 5.869 5.848 5.886 15.346.038 21.213zm72.952 102.172c-8.284 0-15-6.716-15-15s6.716-15 15-15 15 6.716 15 15-6.716 15-15 15z"/></g></svg>