<?xml version="1.0" encoding="iso-8859-1"?>
<!-- Generator: Adobe Illustrator 19.0.0, SVG Export Plug-In . SVG Version: 6.00 Build 0)  -->
<svg version="1.1" id="Capa_1" xmlns="http://www.w3.org/2000/svg" xmlns:xlink="http://www.w3.org/1999/xlink" x="0px" y="0px"
	 viewBox="0 0 512 512" style="enable-background:new 0 0 512 512;" xml:space="preserve">
<g>
	<g>
		<path d="M315.501,60h-180c-8.284,0-15,6.716-15,15v108.092c0,8.284,6.716,15,15,15h180c8.284,0,15-6.716,15-15V75
			C330.501,66.716,323.785,60,315.501,60z M300.501,168.092h-150V90h150V168.092z"/>
	</g>
</g>
<g>
	<g>
		<path d="M475.685,95.309c-6.552-5.072-15.972-3.874-21.044,2.675l-41,52.942c-2.036,2.629-3.141,5.859-3.141,9.185
			c0,7.942,0,162.828,0,169.144h-20V45c0-24.813-20.186-45-45-45h-240c-24.813,0-45,20.187-45,45v377h-15c-8.284,0-15,6.716-15,15
			v60c0,8.284,6.716,15,15,15h359.999c8.284,0,15-6.716,15-15v-60c0-8.284-6.716-15-15-15h-15v-62.746h35c8.284,0,15-6.716,15-15
			V209.49h9.62c8.284,0,15-6.716,15-15v-61.042l13.239-17.095C483.432,109.803,482.235,100.381,475.685,95.309z M90.501,45
			c0-8.271,6.729-15,15-15h240c8.271,0,15,6.729,15,15v377h-270V45z M390.5,452v30h-330v-30C95.487,452,356.586,452,390.5,452z"/>
	</g>
</g>
<g>
	<g>
		<path d="M174.594,230.078h-39.093c-8.284,0-15,6.716-15,15s6.716,15,15,15h39.093c8.284,0,15-6.716,15-15
			S182.878,230.078,174.594,230.078z"/>
	</g>
</g>
<g>
</g>
<g>
</g>
<g>
</g>
<g>
</g>
<g>
</g>
<g>
</g>
<g>
</g>
<g>
</g>
<g>
</g>
<g>
</g>
<g>
</g>
<g>
</g>
<g>
</g>
<g>
</g>
<g>
</g>
</svg>
