<?xml version="1.0" encoding="iso-8859-1"?>
<!-- Generator: Adobe Illustrator 19.0.0, SVG Export Plug-In . SVG Version: 6.00 Build 0)  -->
<svg version="1.1" id="Capa_1" xmlns="http://www.w3.org/2000/svg" xmlns:xlink="http://www.w3.org/1999/xlink" x="0px" y="0px"
	 viewBox="0 0 496.64 496.64" style="enable-background:new 0 0 496.64 496.64;" xml:space="preserve">
<g>
	<g>
		<path d="M472.64,400.32c13.232,0,24-10.768,24-24v-128c0-7.176-3.232-13.56-8.24-17.96l-9.512-38.04H456.64v-64h-16v-16
			c0-4.416,3.592-8,8-8h16v-16h-16c-13.232,0-24,10.768-24,24v16h-16v64h-22.248l-8,32h-9.752v-56c0-13.232-10.768-24-24-24h-60.688
			l-72-72h-0.648l-89.6-67.192c-4.128-3.104-9.24-4.808-14.4-4.808h-2.664c-4.688,0-9.128,1.488-12.952,3.96
			C85.84,1.744,79.408,0.32,72.64,0.32c-26.472,0-48,21.528-48,48l0.04,8.8l1.688,16.864L0,82.768L23.736,304.32H0.64v16h41.136
			c0.544,2.104,1.296,4.104,2.24,6.016c-26,11.248-43.376,36.976-43.376,65.984c0,32.808,22.208,61.456,54,69.656l4-15.504
			c-24.728-6.368-42-28.648-42-54.152c0-24.392,15.872-45.656,38.872-53.064c4.96,3.168,10.816,5.064,17.128,5.064
			s12.168-1.896,17.128-5.064c23,7.408,38.872,28.672,38.872,53.064c0,25.504-17.272,47.784-42,54.16l4,15.504
			c31.792-8.208,54-36.856,54-69.664c0-29.008-17.376-54.736-43.376-65.984c0.944-1.912,1.688-3.92,2.24-6.016h41.136v-16h-41.136
			c-1.2-4.632-3.416-8.808-6.4-12.376l14.512-147.624h49.024v110.04v1.96v144h80v16h-40c-22.056,0-40,17.944-40,40
			c0,22.056,17.944,40,40,40h256c22.056,0,40-17.944,40-40c0-22.056-17.944-40-40-40h-24v-16H472.64z M448.64,384.32h-16v-144h16
			V384.32z M480.64,248.32v128c0,4.416-3.592,8-8,8h-8v-144h8C477.048,240.32,480.64,243.904,480.64,248.32z M424.64,144.32h16v48
			h-16V144.32z M368.64,240.32h48v48h-48V240.32z M416.64,304.32v80h-16v-80H416.64z M368.64,304.32h16v80h-16V304.32z
			 M112.104,17.92l72.536,54.4h-29.336l-34.768-26.08c-0.488-11.384-4.944-21.736-12.04-29.728
			C109.792,16.712,111.056,17.128,112.104,17.92z M128.64,72.32h-9.616l0.696-6.696L128.64,72.32z M41.776,304.32h-1.952
			L17.28,93.872L28,90.296l20.16,201.656C45.192,295.52,42.976,299.696,41.776,304.32z M72.64,328.32c-8.824,0-16-7.176-16-16
			c0-8.824,7.176-16,16-16s16,7.176,16,16C88.64,321.144,81.464,328.32,72.64,328.32z M82.024,281.888
			c-2.992-0.928-6.096-1.568-9.384-1.568c-3.296,0-6.408,0.648-9.408,1.576L40.64,56.32v-8c0-17.648,14.352-32,32-32
			s32,14.352,32,32v7.584l-1.696,16.416H64.64v72h30.896L82.024,281.888z M160.64,128.32h-80v-40h124.688l56,56H232.64
			c-9.328,0-17.88,5.48-21.616,13.592l-2.384,4.56V128.32c0-13.232-10.768-24-24-24S160.64,115.088,160.64,128.32z M193.048,192.32
			l-16.408,31.408V128.32c0-4.416,3.592-8,8-8s8,3.584,8,8v64H193.048z M176.64,384.32V258.28l48.736-93.312
			c1.304-2.816,4.152-4.648,7.264-4.648h112c4.408,0,8,3.584,8,8v216H176.64z M200.848,480.32h-0.208c-13.232,0-24-10.768-24-24
			s10.768-24,24-24h0.208c-5.08,6.704-8.208,14.96-8.208,24C192.64,465.36,195.768,473.616,200.848,480.32z M232.64,480.32
			c-13.232,0-24-10.768-24-24s10.768-24,24-24s24,10.768,24,24S245.872,480.32,232.64,480.32z M256.64,400.32h160v16h-160V400.32z
			 M264.84,432.32c-0.064,0.088-0.136,0.16-0.2,0.248c-0.064-0.088-0.136-0.16-0.208-0.248H264.84z M264.44,480.32
			c0.064-0.088,0.136-0.16,0.2-0.248c0.064,0.088,0.136,0.16,0.208,0.248H264.44z M296.64,480.32c-13.232,0-24-10.768-24-24
			s10.768-24,24-24s24,10.768,24,24S309.872,480.32,296.64,480.32z M328.84,432.32c-0.064,0.088-0.136,0.16-0.2,0.248
			c-0.064-0.088-0.136-0.16-0.208-0.248H328.84z M328.44,480.32c0.064-0.088,0.144-0.16,0.208-0.248
			c0.056,0.088,0.128,0.16,0.2,0.248H328.44z M360.64,480.32c-13.232,0-24-10.768-24-24s10.768-24,24-24s24,10.768,24,24
			S373.872,480.32,360.64,480.32z M392.84,432.32c-0.064,0.088-0.136,0.16-0.2,0.248c-0.064-0.088-0.136-0.16-0.208-0.248H392.84z
			 M392.44,480.32c0.064-0.088,0.144-0.16,0.208-0.248c0.056,0.088,0.128,0.16,0.2,0.248H392.44z M456.432,432.32h0.208
			c13.232,0,24,10.768,24,24s-10.768,24-24,24h-0.208c5.08-6.704,8.208-14.96,8.208-24
			C464.64,447.28,461.512,439.024,456.432,432.32z M448.64,456.32c0,13.232-10.768,24-24,24s-24-10.768-24-24s10.768-24,24-24
			S448.64,443.088,448.64,456.32z M394.888,224.32l4-16h67.504l4,16H394.888z"/>
	</g>
</g>
<g>
	<g>
		<path d="M238.08,176.32l-45.44,85.024V368.32h144v-192H238.08z M320.64,352.32h-112v-80h112V352.32z M320.64,256.32H213.464
			l34.208-64h72.968V256.32z"/>
	</g>
</g>
<g>
	<g>
		<rect x="64.64" y="40.32" width="16" height="16"/>
	</g>
</g>
<g>
	<g>
		<rect x="224.64" y="448.32" width="16" height="16"/>
	</g>
</g>
<g>
	<g>
		<rect x="288.64" y="448.32" width="16" height="16"/>
	</g>
</g>
<g>
	<g>
		<rect x="352.64" y="448.32" width="16" height="16"/>
	</g>
</g>
<g>
	<g>
		<rect x="416.64" y="448.32" width="16" height="16"/>
	</g>
</g>
<g>
</g>
<g>
</g>
<g>
</g>
<g>
</g>
<g>
</g>
<g>
</g>
<g>
</g>
<g>
</g>
<g>
</g>
<g>
</g>
<g>
</g>
<g>
</g>
<g>
</g>
<g>
</g>
<g>
</g>
</svg>
