<?xml version="1.0" encoding="iso-8859-1"?>
<!-- Generator: Adobe Illustrator 19.0.0, SVG Export Plug-In . SVG Version: 6.00 Build 0)  -->
<svg version="1.1" id="Layer_1" xmlns="http://www.w3.org/2000/svg" xmlns:xlink="http://www.w3.org/1999/xlink" x="0px" y="0px"
	 viewBox="0 0 512 512" style="enable-background:new 0 0 512 512;" xml:space="preserve">
<g>
	<g>
		<g>
			<path d="M437.333,362.667H352c-5.896,0-10.667,4.771-10.667,10.667c0,5.896,4.771,10.667,10.667,10.667h85.333
				c5.896,0,10.667-4.771,10.667-10.667C448,367.438,443.229,362.667,437.333,362.667z"/>
			<path d="M309.333,362.667H288c-5.896,0-10.667,4.771-10.667,10.667c0,5.896,4.771,10.667,10.667,10.667h21.333
				c5.896,0,10.667-4.771,10.667-10.667C320,367.438,315.229,362.667,309.333,362.667z"/>
			<path d="M288,320h85.333c5.896,0,10.667-4.771,10.667-10.667c0-5.896-4.771-10.667-10.667-10.667H288
				c-5.896,0-10.667,4.771-10.667,10.667C277.333,315.229,282.104,320,288,320z"/>
			<path d="M437.333,298.667H416c-5.896,0-10.667,4.771-10.667,10.667c0,5.896,4.771,10.667,10.667,10.667h21.333
				c5.896,0,10.667-4.771,10.667-10.667C448,303.438,443.229,298.667,437.333,298.667z"/>
			<path d="M234.667,202.667c0,5.896,4.771,10.667,10.667,10.667h85.333c5.896,0,10.667-4.771,10.667-10.667
				c0-5.896-4.771-10.667-10.667-10.667h-85.333C239.438,192,234.667,196.771,234.667,202.667z"/>
			<path d="M362.667,128h10.667c5.896,0,10.667-4.771,10.667-10.667c0-5.896-4.771-10.667-10.667-10.667h-10.667
				c-5.896,0-10.667,4.771-10.667,10.667C352,123.229,356.771,128,362.667,128z"/>
			<path d="M234.667,128h64c5.896,0,10.667-4.771,10.667-10.667c0-5.896-4.771-10.667-10.667-10.667h-64
				c-5.896,0-10.667,4.771-10.667,10.667C224,123.229,228.771,128,234.667,128z"/>
			<path d="M456.081,235.986c8.674-17.962,13.253-40.142,13.253-65.319c0-59.813-28.115-106.667-64-106.667H128
				c-35.885,0-64,46.854-64,106.667c0,25.565,5.355,48.447,14.039,66.63c-4.517-1.629-9.188-2.63-14.039-2.63
				c-35.885,0-64,46.854-64,106.667C0,401.146,28.115,448,64,448h384c35.885,0,64-46.854,64-106.667
				C512,286.148,487.966,242.488,456.081,235.986z M405.333,85.333c20.177,0,42.667,35.042,42.667,85.333
				c0,26.22-5.626,48.018-15.871,64H179.171c8.188-18.227,12.829-40.451,12.829-64c0-35.443-10.021-66.043-25.531-85.333H405.333z
				 M128,85.333c20.177,0,42.667,35.042,42.667,85.333c0,26.982-7.005,52.516-18.651,68.967
				c-6.978,3.451-13.438,8.552-19.143,15.443C131.237,255.496,129.591,256,128,256c-20.177,0-42.667-35.042-42.667-85.333
				C85.333,120.375,107.823,85.333,128,85.333z M120.049,276.036c-0.884,1.915-1.911,3.619-2.716,5.638
				c-0.996-2.5-2.255-4.632-3.372-6.971C115.934,275.414,118.007,275.628,120.049,276.036z M64,426.667
				c-20.177,0-42.667-35.042-42.667-85.333C21.333,291.042,43.823,256,64,256s42.667,35.042,42.667,85.333
				C106.667,391.625,84.177,426.667,64,426.667z M102.469,426.667c5.763-7.167,10.876-15.667,14.865-25.674
				c3.988,10.008,9.102,18.508,14.865,25.674H102.469z M170.667,426.667c-20.177,0-42.667-35.042-42.667-85.333
				C128,291.042,150.49,256,170.667,256c20.177,0,42.667,35.042,42.667,85.333C213.333,391.625,190.844,426.667,170.667,426.667z
				 M448,426.667H209.135c15.51-19.29,25.531-49.891,25.531-85.333c0-35.443-10.021-66.043-25.531-85.333H448
				c20.177,0,42.667,35.042,42.667,85.333C490.667,391.625,468.177,426.667,448,426.667z"/>
			<path d="M85.333,330.667c-5.896,0-10.667,4.771-10.667,10.667c0,20.646-8.01,32-10.667,32c-0.177,0-1.115-0.333-2.531-1.938
				c-3.906-4.427-10.656-4.854-15.052-0.969c-4.427,3.896-4.854,10.635-0.969,15.052c6.677,7.594,13.771,9.188,18.552,9.188
				c18.24,0,32-22.927,32-53.333C96,335.438,91.229,330.667,85.333,330.667z"/>
			<path d="M53.385,338.458c0.625-16.406,6.417-26.958,10.125-28.927c5.208-2.75,7.198-9.208,4.438-14.417
				c-2.75-5.198-9.198-7.208-14.417-4.438c-12.385,6.552-20.604,24.552-21.458,46.969c-0.229,5.885,4.365,10.844,10.25,11.063
				c0.135,0.01,0.271,0.01,0.417,0.01C48.438,348.719,53.167,344.208,53.385,338.458z"/>
			<path d="M160,341.333c0-5.76-4.698-10.667-10.667-10.667c-5.979,0-10.667,4.906-10.667,10.667c0,5.542,0.427,11.094,1.49,16.635
				c0.854,5.125,5.333,8.75,10.458,8.75c0.635,0,1.271,0,1.917-0.219c4.906-0.854,8.75-5.115,8.75-10.24c0-0.854,0-1.49-0.219-2.135
				C160.427,350.073,160,345.813,160,341.333z"/>
			<path d="M189.646,297.594l-0.427-0.427c-3.833-4.26-10.875-4.688-15.146-0.854c-2.125,1.927-3.406,4.698-3.625,7.688
				c0,2.771,1.073,5.333,2.771,7.25c4.063,4.271,8.323,16.427,8.115,30.083c0,7.458-1.073,14.719-3.208,20.688
				c-0.427,1.281-0.635,2.563-0.635,3.625c0.208,4.479,2.99,8.542,7.25,10.031c1.073,0.427,2.354,0.635,3.417,0.635
				c4.698,0,8.75-2.979,10.24-7.25c2.771-8.323,4.271-17.917,4.271-27.729C202.448,322.979,197.969,307.833,189.646,297.594z"/>
			<path d="M128,223.958c11.917,0,21.979-9.292,27.615-25.5c1.938-5.563-1.01-11.635-6.573-13.573
				c-5.5-1.927-11.635,1.01-13.573,6.573c-2.958,8.49-6.677,11.167-7.469,11.167c-0.271,0-1.792-0.635-3.802-3.583
				c-3.302-4.865-9.948-6.167-14.813-2.813c-4.875,3.313-6.135,9.948-2.813,14.813C112.24,219.375,119.844,223.958,128,223.958z"/>
			<path d="M117.333,170.667c0-15.406,4.677-27.344,9.302-31.177c4.542-3.75,5.167-10.479,1.406-15.01
				c-3.76-4.563-10.479-5.198-15.01-1.406C102.521,131.771,96,150.01,96,170.667c0,5.896,4.771,10.667,10.667,10.667
				C112.563,181.333,117.333,176.563,117.333,170.667z"/>
		</g>
	</g>
</g>
<g>
</g>
<g>
</g>
<g>
</g>
<g>
</g>
<g>
</g>
<g>
</g>
<g>
</g>
<g>
</g>
<g>
</g>
<g>
</g>
<g>
</g>
<g>
</g>
<g>
</g>
<g>
</g>
<g>
</g>
</svg>
