<?xml version="1.0" encoding="iso-8859-1"?>
<!-- Generator: Adobe Illustrator 19.0.0, SVG Export Plug-In . SVG Version: 6.00 Build 0)  -->
<svg version="1.1" id="Capa_1" xmlns="http://www.w3.org/2000/svg" xmlns:xlink="http://www.w3.org/1999/xlink" x="0px" y="0px"
	 viewBox="0 0 437.296 437.296" style="enable-background:new 0 0 437.296 437.296;" xml:space="preserve">
<g>
	<g>
		<path d="M432.706,6.798c-4.608-4.608-10.24-5.632-15.36-3.584L72.77,141.454c-5.632,2.048-9.216,8.192-9.216,13.824
			s4.608,11.264,10.24,13.312l151.04,46.592l46.592,150.528c1.536,5.632,6.656,9.728,13.312,10.24h0.512
			c5.632,0,10.752-3.584,13.312-9.216L436.29,22.158C438.338,17.038,437.314,10.894,432.706,6.798z"/>
	</g>
</g>
<g>
	<g>
		
			<rect x="35.486" y="332.084" transform="matrix(0.7071 -0.7071 0.7071 0.7071 -218.8917 164.3892)" width="107.007" height="28.672"/>
	</g>
</g>
<g>
	<g>
		
			<rect x="-5.534" y="250.702" transform="matrix(0.7071 -0.7071 0.7071 0.7071 -173.3598 111.5473)" width="107.007" height="28.672"/>
	</g>
</g>
<g>
	<g>
		
			<rect x="116.723" y="372.783" transform="matrix(0.7071 -0.7071 0.7071 0.7071 -223.876 233.7532)" width="107.007" height="28.672"/>
	</g>
</g>
<g>
</g>
<g>
</g>
<g>
</g>
<g>
</g>
<g>
</g>
<g>
</g>
<g>
</g>
<g>
</g>
<g>
</g>
<g>
</g>
<g>
</g>
<g>
</g>
<g>
</g>
<g>
</g>
<g>
</g>
</svg>
