<svg id="Layer_1" enable-background="new 0 0 512.007 512.007" height="512" viewBox="0 0 512.007 512.007" width="512" xmlns="http://www.w3.org/2000/svg"><g><path d="m466.004 176.007h-82v-139.974c0-12.568-6.383-24.016-17.074-30.624-10.689-6.607-23.783-7.197-35.025-1.576-.144.072-.286.146-.428.222l-296.78 159.722c-21.399 11.517-34.693 33.769-34.693 58.07v.16 10 234c0 25.364 20.636 46 46 46h420c25.364 0 46-20.636 46-46v-244c0-25.364-20.636-46-46-46zm-119 0h-247.667c-5.195 0-6.944-6.941-2.37-9.403l249.388-134.216c1.587-.73 2.911-.276 3.751.243.866.535 1.897 1.56 1.897 3.403v134.974c.001 2.761-2.238 4.999-4.999 4.999zm69 200c-17.645 0-32-14.355-32-32s14.355-32 32-32 32 14.355 32 32-14.356 32-32 32z"/></g></svg>