<?xml version="1.0" encoding="iso-8859-1"?><svg viewBox="0 0 513.64 513.64" xmlns="http://www.w3.org/2000/svg" xmlns:xlink="http://www.w3.org/1999/xlink"><style>:root>svg{display:none}:root>svg:target{display:block}</style><svg viewBox="0 0 512 512" id="box" xmlns="http://www.w3.org/2000/svg"><path d="M155.999 370.002c-5.52 0-10 4.48-10 10s4.48 10 10 10 10-4.48 10-10-4.48-10-10-10z"/><path d="M450.143 190.001l58.929-58.929a10 10 0 00-4.122-16.626l-143.5-44.29C348.514 28.575 310.066.002 265.999.002c-40.964 0-77.6 24.965-92.763 62.625L7.022 114.455a10 10 0 00-4.094 16.618l60.479 60.479-38.144 63.575a10.001 10.001 0 005.413 14.632l55.323 18.44v153.802a10 10 0 006.489 9.363c33.827 12.684 159.512 59.822 160.187 60.061a9.962 9.962 0 006.398.089c.029-.01.059-.016.088-.026l180-60a10.001 10.001 0 006.838-9.487v-157.92l58.998-18.54a10 10 0 004.074-16.611l-58.928-58.929zm-84.144-89.999c0-2.541-.107-5.076-.298-7.603l117.494 36.265-49.897 49.896-81.528-27.173c9.232-15.431 14.229-33.237 14.229-51.385zM190.326 73.974c11.101-32.282 41.512-53.972 75.673-53.972 36.801 0 68.719 24.892 77.618 60.532a80.446 80.446 0 012.382 19.468c0 18.574-6.164 35.983-17.828 50.352-15.277 18.842-37.938 29.648-62.172 29.648-26.196 0-50.767-12.858-65.733-34.404-9.333-13.406-14.267-29.174-14.267-45.596 0-8.931 1.455-17.688 4.327-26.028zM28.764 128.625l138.3-43.124a100.825 100.825 0 00-1.065 14.5c0 16.101 3.814 31.696 11.084 45.767L78.7 178.56l-49.936-49.935zm20.063 126.102l31.62-52.702 160.563 53.521-31.619 52.702-160.564-53.521zm197.172 232.845l-140-52.5V294.866c110.15 36.522 104.771 35.407 107.838 35.407 3.438 0 6.73-1.779 8.577-4.856l23.585-39.311v201.466zm10-248.111l-148.376-49.458 80.794-26.93c18.91 23.247 47.377 36.929 77.582 36.929 27.942 0 54.203-11.499 73.092-31.759l65.284 21.759-148.376 49.459zm170 195.333l-160 53.333v-209.62l35.451 44.31a10.002 10.002 0 0010.807 3.293l113.742-35.743v144.427zM312.791 304.979l-40.024-50.026 160.531-53.51 49.964 49.964-170.471 53.572z"/><path d="M219.511 392.198l-22.24-8.34c-5.171-1.938-10.935.681-12.875 5.852-1.939 5.172.681 10.936 5.852 12.875l22.24 8.34c5.182 1.942 10.939-.69 12.875-5.852 1.939-5.171-.681-10.936-5.852-12.875zM219.51 434.918l-60-22.5c-5.171-1.939-10.935.681-12.875 5.852-1.94 5.171.681 10.936 5.852 12.875l60 22.5a9.975 9.975 0 003.51.64c4.049 0 7.859-2.477 9.365-6.492 1.94-5.172-.68-10.936-5.852-12.875zM323.071 62.93c-3.905-3.906-10.237-3.905-14.143 0l-52.929 52.93-12.929-12.929c-3.905-3.905-10.237-3.905-14.143 0-3.906 3.905-3.905 10.237 0 14.143l20.001 19.999c3.905 3.905 10.237 3.905 14.143 0l60-60c3.905-3.905 3.905-10.237 0-14.143z"/></svg><svg viewBox="0 0 512 512" id="fb" xmlns="http://www.w3.org/2000/svg"><path d="M437 0H75C33.648 0 0 33.648 0 75v362c0 41.352 33.648 75 75 75h151V331h-60v-90h60v-61c0-49.629 40.371-90 90-90h91v90h-91v61h91l-15 90h-76v181h121c41.352 0 75-33.648 75-75V75c0-41.352-33.648-75-75-75zm0 0"/></svg><svg viewBox="0 0 512 512" id="fuel" xmlns="http://www.w3.org/2000/svg"><path d="M315.501 60h-180c-8.284 0-15 6.716-15 15v108.092c0 8.284 6.716 15 15 15h180c8.284 0 15-6.716 15-15V75c0-8.284-6.716-15-15-15zm-15 108.092h-150V90h150v78.092z"/><path d="M475.685 95.309c-6.552-5.072-15.972-3.874-21.044 2.675l-41 52.942a15 15 0 00-3.141 9.185v169.144h-20V45c0-24.813-20.186-45-45-45h-240c-24.813 0-45 20.187-45 45v377h-15c-8.284 0-15 6.716-15 15v60c0 8.284 6.716 15 15 15h359.999c8.284 0 15-6.716 15-15v-60c0-8.284-6.716-15-15-15h-15v-62.746h35c8.284 0 15-6.716 15-15V209.49h9.62c8.284 0 15-6.716 15-15v-61.042l13.239-17.095c5.074-6.55 3.877-15.972-2.673-21.044zM90.501 45c0-8.271 6.729-15 15-15h240c8.271 0 15 6.729 15 15v377h-270V45zM390.5 452v30h-330v-30h330z"/><path d="M174.594 230.078h-39.093c-8.284 0-15 6.716-15 15s6.716 15 15 15h39.093c8.284 0 15-6.716 15-15s-6.716-15-15-15z"/></svg><svg viewBox="0 0 512 512" id="gears" xmlns="http://www.w3.org/2000/svg"><path d="M406.061 105.935c-38.078-38.078-100.037-38.076-138.116.001-29.543 29.545-37.037 74.582-18.648 112.071 2.432 4.958 8.422 7.007 13.382 4.574 4.958-2.432 7.006-8.424 4.574-13.381-14.623-29.811-8.662-65.626 14.834-89.122 30.279-30.28 79.551-30.282 109.832 0 30.281 30.281 30.281 79.551 0 109.832-23.449 23.45-59.215 29.437-88.994 14.896-4.967-2.423-10.951-.364-13.373 4.599s-.364 10.95 4.599 13.373a97.406 97.406 0 0042.789 9.894c25.358 0 50.373-9.871 69.121-28.62 38.078-38.079 38.078-100.038 0-138.117z"/><path d="M282.124 229.991c-3.873-3.939-10.233-3.964-14.17-.093-3.938 3.872-3.992 10.204-.12 14.141a9.965 9.965 0 007.132 2.99c2.53 0 5.062-.954 7.009-2.869l.058-.057c3.938-3.872 3.963-10.175.091-14.112z"/><path d="M507.226 207.695L476.52 188.86v-27.732l30.706-18.835a9.999 9.999 0 004.01-12.352L492.05 83.65a9.998 9.998 0 00-11.567-5.896l-35.03 8.395-19.603-19.601 8.395-35.03a10 10 0 00-5.896-11.568L382.059.764a9.997 9.997 0 00-12.353 4.009L350.87 35.478h-27.731L304.304 4.773A10 10 0 00291.951.764l-46.29 19.186a10 10 0 00-5.896 11.568l8.395 35.03-19.602 19.601-35.03-8.395a10 10 0 00-11.567 5.896l-19.186 46.29a9.999 9.999 0 004.01 12.352l30.706 18.835v27.732l-30.706 18.835a9.999 9.999 0 00-4.01 12.352l19.186 46.29a9.997 9.997 0 0011.567 5.896l35.03-8.395 19.602 19.601-8.395 35.03a9.998 9.998 0 005.896 11.567l46.29 19.186a10 10 0 0012.353-4.009l18.835-30.706h27.731l18.835 30.706a10 10 0 0012.354 4.009l46.29-19.186a9.998 9.998 0 005.896-11.567l-8.395-35.03 19.602-19.601 35.03 8.395a9.999 9.999 0 0011.567-5.896l19.186-46.29a9.997 9.997 0 00-4.009-12.351zm-30.384 43.101l-32.175-7.71a10 10 0 00-9.401 2.653l-27.518 27.517a10 10 0 00-2.653 9.402l7.71 32.174-30.518 12.648-17.297-28.199a10 10 0 00-8.524-4.771H317.54a10 10 0 00-8.524 4.771l-17.297 28.199-30.518-12.648 7.71-32.174a10 10 0 00-2.653-9.402l-27.518-27.517a10.001 10.001 0 00-9.401-2.653l-32.174 7.71-12.647-30.518 28.198-17.297a10 10 0 004.771-8.524v-38.926a9.997 9.997 0 00-4.771-8.524L184.52 129.71l12.647-30.518 32.174 7.71a10.006 10.006 0 009.401-2.653l27.518-27.517a10 10 0 002.653-9.402l-7.71-32.174 30.518-12.648 17.297 28.199a10 10 0 008.524 4.771h38.926a9.999 9.999 0 008.524-4.771l17.297-28.199 30.518 12.648-7.71 32.174a10 10 0 002.653 9.402l27.518 27.517a10.003 10.003 0 009.401 2.653l32.175-7.71 12.647 30.518-28.198 17.297a10 10 0 00-4.771 8.524v38.926a9.997 9.997 0 004.771 8.524l28.198 17.297-12.649 30.518z"/><path d="M252.459 368.298a10 10 0 00-8.442-9.865l-22.88-3.609-6.022-14.494 13.586-18.759a10 10 0 00-1.033-12.942l-24.505-24.463a9.997 9.997 0 00-12.947-1.009l-18.729 13.626-14.516-5.995-3.657-22.872a10 10 0 00-9.875-8.421h-.013l-34.625.045a10 10 0 00-9.865 8.442l-3.608 22.879-14.495 6.022-18.758-13.586a10 10 0 00-12.942 1.034L24.67 308.836a9.997 9.997 0 00-1.009 12.947l13.626 18.729-5.994 14.515-22.872 3.658A10 10 0 000 368.573l.045 34.625a10 10 0 008.442 9.865l22.879 3.609 6.022 14.494-13.586 18.759a10 10 0 001.033 12.942L49.34 487.33a10 10 0 0012.947 1.009l18.729-13.626 14.516 5.994 3.657 22.872a10 10 0 009.875 8.421h.013l34.625-.044a10 10 0 009.865-8.442l3.609-22.879 14.494-6.022 18.76 13.586a9.998 9.998 0 0012.941-1.034l24.463-24.505a9.999 9.999 0 001.01-12.947l-13.626-18.73 5.994-14.515 22.871-3.658a10 10 0 008.421-9.887l-.045-34.625zm-39.932 29.304a10.003 10.003 0 00-7.664 6.058l-10.268 24.862a10 10 0 001.156 9.7l11.896 16.352-12.4 12.421-16.381-11.864a10 10 0 00-9.702-1.136l-24.832 10.317a10.003 10.003 0 00-6.041 7.677l-3.151 19.978-17.552.023-3.193-19.967a10.004 10.004 0 00-6.059-7.664l-24.862-10.267a10.02 10.02 0 00-9.698 1.152l-16.35 11.896-12.421-12.4 11.862-16.38a9.998 9.998 0 001.136-9.702l-10.317-24.833a10 10 0 00-7.677-6.041l-19.977-3.151-.023-17.552 19.968-3.193a9.997 9.997 0 007.664-6.058l10.267-24.862a10 10 0 00-1.157-9.699l-11.895-16.351 12.4-12.421 16.379 11.864a9.997 9.997 0 009.703 1.136l24.833-10.317a10 10 0 006.041-7.677l3.15-19.978 17.552-.022 3.193 19.967a10.001 10.001 0 006.058 7.664l24.862 10.268a10.003 10.003 0 009.7-1.156l16.352-11.895 12.421 12.4-11.862 16.38a9.998 9.998 0 00-1.136 9.702l10.317 24.833a10 10 0 007.677 6.041l19.978 3.151.022 17.552-19.969 3.192z"/><path d="M171.504 340.495c-14.154-14.154-33.672-20.791-53.54-18.208-5.477.712-9.34 5.729-8.628 11.206.713 5.477 5.731 9.342 11.206 8.627 13.665-1.777 27.088 2.786 36.819 12.518 8.312 8.31 12.887 19.358 12.887 31.111s-4.577 22.801-12.887 31.112c-8.31 8.31-19.358 12.886-31.111 12.886s-22.8-4.577-31.111-12.887c-9.974-9.974-14.492-23.706-12.397-37.677.819-5.462-2.945-10.554-8.407-11.372-5.462-.817-10.552 2.946-11.371 8.407-3 20.013 3.742 40.493 18.034 54.785 12.087 12.088 28.159 18.745 45.253 18.745s33.165-6.657 45.252-18.744c12.087-12.087 18.744-28.159 18.744-45.253s-6.655-33.169-18.743-45.256z"/><path d="M95.265 340.403c-3.896-3.914-10.227-3.928-14.142-.032l-.109.109c-3.913 3.896-3.927 10.228-.031 14.141a9.97 9.97 0 007.087 2.945 9.972 9.972 0 007.056-2.913l.109-.109c3.911-3.896 3.925-10.228.03-14.141z"/></svg><svg viewBox="0 0 496.64 496.64" id="grab" xmlns="http://www.w3.org/2000/svg"><path d="M472.64 400.32c13.232 0 24-10.768 24-24v-128c0-7.176-3.232-13.56-8.24-17.96l-9.512-38.04H456.64v-64h-16v-16c0-4.416 3.592-8 8-8h16v-16h-16c-13.232 0-24 10.768-24 24v16h-16v64h-22.248l-8 32h-9.752v-56c0-13.232-10.768-24-24-24h-60.688l-72-72h-.648l-89.6-67.192a24.1 24.1 0 00-14.4-4.808h-2.664c-4.688 0-9.128 1.488-12.952 3.96A47.742 47.742 0 0072.64.32c-26.472 0-48 21.528-48 48l.04 8.8 1.688 16.864L0 82.768 23.736 304.32H.64v16h41.136a31.17 31.17 0 002.24 6.016C18.016 337.584.64 363.312.64 392.32c0 32.808 22.208 61.456 54 69.656l4-15.504c-24.728-6.368-42-28.648-42-54.152 0-24.392 15.872-45.656 38.872-53.064 4.96 3.168 10.816 5.064 17.128 5.064s12.168-1.896 17.128-5.064c23 7.408 38.872 28.672 38.872 53.064 0 25.504-17.272 47.784-42 54.16l4 15.504c31.792-8.208 54-36.856 54-69.664 0-29.008-17.376-54.736-43.376-65.984a31.91 31.91 0 002.24-6.016h41.136v-16h-41.136c-1.2-4.632-3.416-8.808-6.4-12.376l14.512-147.624h49.024v256h80v16h-40c-22.056 0-40 17.944-40 40s17.944 40 40 40h256c22.056 0 40-17.944 40-40s-17.944-40-40-40h-24v-16h40zm-24-16h-16v-144h16v144zm32-136v128c0 4.416-3.592 8-8 8h-8v-144h8c4.408 0 8 3.584 8 8zm-56-104h16v48h-16v-48zm-56 96h48v48h-48v-48zm48 64v80h-16v-80h16zm-48 0h16v80h-16v-80zM112.104 17.92l72.536 54.4h-29.336l-34.768-26.08c-.488-11.384-4.944-21.736-12.04-29.728 1.296.2 2.56.616 3.608 1.408zm16.536 54.4h-9.616l.696-6.696 8.92 6.696zm-86.864 232h-1.952L17.28 93.872 28 90.296l20.16 201.656c-2.968 3.568-5.184 7.744-6.384 12.368zm30.864 24c-8.824 0-16-7.176-16-16s7.176-16 16-16 16 7.176 16 16-7.176 16-16 16zm9.384-46.432c-2.992-.928-6.096-1.568-9.384-1.568-3.296 0-6.408.648-9.408 1.576L40.64 56.32v-8c0-17.648 14.352-32 32-32s32 14.352 32 32v7.584l-1.696 16.416H64.64v72h30.896L82.024 281.888zM160.64 128.32h-80v-40h124.688l56 56H232.64c-9.328 0-17.88 5.48-21.616 13.592l-2.384 4.56V128.32c0-13.232-10.768-24-24-24s-24 10.768-24 24zm32.408 64l-16.408 31.408V128.32c0-4.416 3.592-8 8-8s8 3.584 8 8v64h.408zm-16.408 192V258.28l48.736-93.312a8.035 8.035 0 017.264-4.648h112c4.408 0 8 3.584 8 8v216h-176zm24.208 96h-.208c-13.232 0-24-10.768-24-24s10.768-24 24-24h.208c-5.08 6.704-8.208 14.96-8.208 24s3.128 17.296 8.208 24zm31.792 0c-13.232 0-24-10.768-24-24s10.768-24 24-24 24 10.768 24 24-10.768 24-24 24zm24-80h160v16h-160v-16zm8.2 32c-.064.088-.136.16-.2.248-.064-.088-.136-.16-.208-.248h.408zm-.4 48c.064-.088.136-.16.2-.248.064.088.136.16.208.248h-.408zm32.2 0c-13.232 0-24-10.768-24-24s10.768-24 24-24 24 10.768 24 24-10.768 24-24 24zm32.2-48c-.064.088-.136.16-.2.248-.064-.088-.136-.16-.208-.248h.408zm-.4 48c.064-.088.144-.16.208-.248.056.088.128.16.2.248h-.408zm32.2 0c-13.232 0-24-10.768-24-24s10.768-24 24-24 24 10.768 24 24-10.768 24-24 24zm32.2-48c-.064.088-.136.16-.2.248-.064-.088-.136-.16-.208-.248h.408zm-.4 48c.064-.088.144-.16.208-.248.056.088.128.16.2.248h-.408zm63.992-48h.208c13.232 0 24 10.768 24 24s-10.768 24-24 24h-.208c5.08-6.704 8.208-14.96 8.208-24s-3.128-17.296-8.208-24zm-7.792 24c0 13.232-10.768 24-24 24s-24-10.768-24-24 10.768-24 24-24 24 10.768 24 24zm-53.752-232l4-16h67.504l4 16h-75.504z"/><path d="M238.08 176.32l-45.44 85.024V368.32h144v-192h-98.56zm82.56 176h-112v-80h112v80zm0-96H213.464l34.208-64h72.968v64zM64.64 40.32h16v16h-16zM224.64 448.32h16v16h-16zM288.64 448.32h16v16h-16zM352.64 448.32h16v16h-16zM416.64 448.32h16v16h-16z"/></svg><svg viewBox="0 0 512 512" id="log" xmlns="http://www.w3.org/2000/svg"><path d="M437.333 362.667H352a10.66 10.66 0 00-10.667 10.667A10.66 10.66 0 00352 384.001h85.333A10.66 10.66 0 00448 373.334a10.66 10.66 0 00-10.667-10.667zM309.333 362.667H288a10.66 10.66 0 00-10.667 10.667A10.66 10.66 0 00288 384.001h21.333A10.66 10.66 0 00320 373.334a10.66 10.66 0 00-10.667-10.667zM288 320h85.333A10.66 10.66 0 00384 309.333a10.66 10.66 0 00-10.667-10.667H288a10.66 10.66 0 00-10.667 10.667A10.66 10.66 0 00288 320zM437.333 298.667H416a10.66 10.66 0 00-10.667 10.667A10.66 10.66 0 00416 320.001h21.333A10.66 10.66 0 00448 309.334a10.66 10.66 0 00-10.667-10.667zM234.667 202.667a10.66 10.66 0 0010.667 10.667h85.333a10.66 10.66 0 0010.667-10.667A10.66 10.66 0 00330.667 192h-85.333a10.66 10.66 0 00-10.667 10.667zM362.667 128h10.667a10.66 10.66 0 0010.667-10.667 10.66 10.66 0 00-10.667-10.667h-10.667A10.66 10.66 0 00352 117.333 10.66 10.66 0 00362.667 128zM234.667 128h64a10.66 10.66 0 0010.667-10.667 10.66 10.66 0 00-10.667-10.667h-64A10.66 10.66 0 00224 117.333 10.66 10.66 0 00234.667 128z"/><path d="M456.081 235.986c8.674-17.962 13.253-40.142 13.253-65.319 0-59.813-28.115-106.667-64-106.667H128c-35.885 0-64 46.854-64 106.667 0 25.565 5.355 48.447 14.039 66.63-4.517-1.629-9.188-2.63-14.039-2.63-35.885 0-64 46.854-64 106.667C0 401.146 28.115 448 64 448h384c35.885 0 64-46.854 64-106.667 0-55.185-24.034-98.845-55.919-105.347zM405.333 85.333c20.177 0 42.667 35.042 42.667 85.333 0 26.22-5.626 48.018-15.871 64H179.171c8.188-18.227 12.829-40.451 12.829-64 0-35.443-10.021-66.043-25.531-85.333h238.864zm-277.333 0c20.177 0 42.667 35.042 42.667 85.333 0 26.982-7.005 52.516-18.651 68.967-6.978 3.451-13.438 8.552-19.143 15.443-1.636.42-3.282.924-4.873.924-20.177 0-42.667-35.042-42.667-85.333 0-50.292 22.49-85.334 42.667-85.334zm-7.951 190.703c-.884 1.915-1.911 3.619-2.716 5.638-.996-2.5-2.255-4.632-3.372-6.971 1.973.711 4.046.925 6.088 1.333zM64 426.667c-20.177 0-42.667-35.042-42.667-85.333C21.333 291.042 43.823 256 64 256s42.667 35.042 42.667 85.333c0 50.292-22.49 85.334-42.667 85.334zm38.469 0c5.763-7.167 10.876-15.667 14.865-25.674 3.988 10.008 9.102 18.508 14.865 25.674h-29.73zm68.198 0c-20.177 0-42.667-35.042-42.667-85.333C128 291.042 150.49 256 170.667 256c20.177 0 42.667 35.042 42.667 85.333-.001 50.292-22.49 85.334-42.667 85.334zm277.333 0H209.135c15.51-19.29 25.531-49.891 25.531-85.333 0-35.443-10.021-66.043-25.531-85.333H448c20.177 0 42.667 35.042 42.667 85.333s-22.49 85.333-42.667 85.333z"/><path d="M85.333 330.667a10.66 10.66 0 00-10.667 10.667c0 20.646-8.01 32-10.667 32-.177 0-1.115-.333-2.531-1.938-3.906-4.427-10.656-4.854-15.052-.969-4.427 3.896-4.854 10.635-.969 15.052 6.677 7.594 13.771 9.188 18.552 9.188 18.24 0 32-22.927 32-53.333a10.66 10.66 0 00-10.666-10.667zM53.385 338.458c.625-16.406 6.417-26.958 10.125-28.927 5.208-2.75 7.198-9.208 4.438-14.417-2.75-5.198-9.198-7.208-14.417-4.438-12.385 6.552-20.604 24.552-21.458 46.969-.229 5.885 4.365 10.844 10.25 11.063.135.01.271.01.417.01 5.698.001 10.427-4.51 10.645-10.26zM160 341.333c0-5.76-4.698-10.667-10.667-10.667-5.979 0-10.667 4.906-10.667 10.667 0 5.542.427 11.094 1.49 16.635.854 5.125 5.333 8.75 10.458 8.75.635 0 1.271 0 1.917-.219 4.906-.854 8.75-5.115 8.75-10.24 0-.854 0-1.49-.219-2.135-.635-4.051-1.062-8.311-1.062-12.791zM189.646 297.594l-.427-.427c-3.833-4.26-10.875-4.688-15.146-.854-2.125 1.927-3.406 4.698-3.625 7.688 0 2.771 1.073 5.333 2.771 7.25 4.063 4.271 8.323 16.427 8.115 30.083 0 7.458-1.073 14.719-3.208 20.688-.427 1.281-.635 2.563-.635 3.625.208 4.479 2.99 8.542 7.25 10.031 1.073.427 2.354.635 3.417.635 4.698 0 8.75-2.979 10.24-7.25 2.771-8.323 4.271-17.917 4.271-27.729-.221-18.355-4.7-33.501-13.023-43.74zM128 223.958c11.917 0 21.979-9.292 27.615-25.5 1.938-5.563-1.01-11.635-6.573-13.573-5.5-1.927-11.635 1.01-13.573 6.573-2.958 8.49-6.677 11.167-7.469 11.167-.271 0-1.792-.635-3.802-3.583-3.302-4.865-9.948-6.167-14.813-2.813-4.875 3.313-6.135 9.948-2.813 14.813 5.668 8.333 13.272 12.916 21.428 12.916zM117.333 170.667c0-15.406 4.677-27.344 9.302-31.177 4.542-3.75 5.167-10.479 1.406-15.01-3.76-4.563-10.479-5.198-15.01-1.406C102.521 131.771 96 150.01 96 170.667a10.66 10.66 0 0010.667 10.667 10.66 10.66 0 0010.666-10.667z"/></svg><svg viewBox="-66 0 511 511.999" id="medal" xmlns="http://www.w3.org/2000/svg"><path d="M40.5 190c0 82.71 67.29 150 150 150s150-67.29 150-150-67.29-150-150-150-150 67.29-150 150zm150-130c71.684 0 130 58.316 130 130s-58.316 130-130 130-130-58.316-130-130 58.316-130 130-130zm0 0"/><path d="M97.89 172.172l38.762 38.191-8.918 53.676a9.997 9.997 0 003.989 9.73 10.004 10.004 0 0010.484.786l48.293-25.078 48.29 25.078a9.996 9.996 0 0010.483-.785 9.997 9.997 0 003.989-9.73l-8.918-53.677 38.761-38.191a9.993 9.993 0 002.493-10.215 10.007 10.007 0 00-8.024-6.797l-53.793-8.097-24.34-48.676a9.997 9.997 0 00-17.886 0l-24.34 48.676-53.793 8.097a10.001 10.001 0 00-5.531 17.012zm67.438-6.106c3.219-.484 6-2.504 7.457-5.414L190.5 125.22l17.715 35.433a10.004 10.004 0 007.457 5.414l39.152 5.895-28.215 27.793a10.018 10.018 0 00-2.847 8.766l6.492 39.066-35.149-18.25a10.003 10.003 0 00-9.215 0l-35.148 18.25 6.492-39.066a9.996 9.996 0 00-2.847-8.766l-28.211-27.793zm0 0M200.5 10c0 5.523-4.477 10-10 10s-10-4.477-10-10 4.477-10 10-10 10 4.477 10 10zm0 0"/><path d="M143.371 5.895C59.25 27.367.5 103.075.5 190c0 53.988 22.7 104.86 62.547 140.887L2.8 437.062a10.002 10.002 0 0010.73 14.727l68.418-14.207 24.047 67.762a9.997 9.997 0 0018.113 1.597L190.5 390.223l66.387 116.718a9.996 9.996 0 008.687 5.055c.293 0 .59-.012.883-.035a10.014 10.014 0 008.547-6.617l24.043-67.762 68.418 14.207c3.844.797 7.8-.73 10.113-3.902a9.994 9.994 0 00.617-10.825L317.95 330.887c39.848-36.028 62.547-86.899 62.547-140.887 0-86.926-58.75-162.633-142.867-184.105a9.998 9.998 0 00-12.164 7.214c-1.367 5.352 1.863 10.797 7.215 12.164C307.937 44.484 360.5 112.223 360.5 190c0 94.66-76.879 170-170 170-93.188 0-170-75.402-170-170 0-77.777 52.559-145.516 127.816-164.727 5.352-1.367 8.582-6.812 7.22-12.164a9.998 9.998 0 00-12.165-7.214zm-25.836 472.16l-19.652-55.38a10 10 0 00-11.457-6.448l-55.324 11.488 47.68-84.031c27.8 20.21 60.718 32.523 94.948 35.57zm177.035-61.828a10.003 10.003 0 00-11.457 6.449l-19.648 55.379-56.2-98.801c34.235-3.047 67.15-15.36 94.954-35.57l47.68 84.03zm0 0"/></svg><svg viewBox="0 0 513.64 513.64" fill="#1e9c24" id="phone" xmlns="http://www.w3.org/2000/svg"><path d="M499.66 376.96l-71.68-71.68c-25.6-25.6-69.12-15.359-79.36 17.92-7.68 23.041-33.28 35.841-56.32 30.72-51.2-12.8-120.32-79.36-133.12-133.12-7.68-23.041 7.68-48.641 30.72-56.32 33.28-10.24 43.52-53.76 17.92-79.36l-71.68-71.68c-20.48-17.92-51.2-17.92-69.12 0L18.38 62.08c-48.64 51.2 5.12 186.88 125.44 307.2s256 176.641 307.2 125.44l48.64-48.64c17.921-20.48 17.921-51.2 0-69.12z"/></svg><svg viewBox="0 0 512 512" fill="#1e9c24" id="pin" xmlns="http://www.w3.org/2000/svg"><path d="M256 0C150.125 0 64 86.135 64 192c0 141.646 177.146 310 184.688 317.104C250.75 511.031 253.375 512 256 512s5.25-.969 7.313-2.896C270.854 502 448 333.646 448 192 448 86.135 361.875 0 256 0zm0 298.667c-58.813 0-106.667-47.854-106.667-106.667S197.188 85.333 256 85.333 362.667 133.188 362.667 192 314.813 298.667 256 298.667z"/></svg><svg viewBox="0 0 511 512" id="repair" xmlns="http://www.w3.org/2000/svg"><path d="M347.34 155.148c-5.52 0-10 4.47-10 9.997 0 5.523 4.48 10 10 10 5.531 0 10-4.477 10-10a9.988 9.988 0 00-10-9.997zm0 0M165.645 336.84c-5.532 0-10 4.48-10 10a9.99 9.99 0 0010 10c5.52 0 10-4.469 10-10 0-5.52-4.48-10-10-10zm0 0"/><path d="M500.059 61.52a9.992 9.992 0 00-9.36 2.695L449.242 106h-19.875l-21.879-22.668V63.18l40.864-41.473a9.993 9.993 0 002.601-9.336 9.994 9.994 0 00-6.531-7.156C434.156 1.754 423.414 0 412.488 0c-32.57 0-62.16 15.188-81.183 41.668-17.805 24.789-23.293 55.168-15.43 84.242l-73.66 73.66-122.719-123V52.43a9.998 9.998 0 00-4.855-8.575L43.934 1.425A9.992 9.992 0 0031.719 2.93L3.438 31.207a10.01 10.01 0 00-1.504 12.219l42.421 70.707a10 10 0 008.57 4.855l24.134.008 122.73 123-73.379 73.379c-29.074-7.86-59.469-2.363-84.27 15.453C15.677 349.84.5 379.422.5 411.992c0 10.922 1.754 21.668 5.215 31.93a10 10 0 0016.574 3.852l41.453-41.782h19.985l22.77 22.77v19.984L64.714 490.2a10 10 0 003.851 16.574c10.262 3.461 21.008 5.215 31.93 5.215 32.57 0 62.149-15.18 81.164-41.644 17.817-24.801 23.313-55.192 15.453-84.266l58.934-58.933 13.5 14.664-6.195 6.191c-3.907 3.906-3.907 10.238 0 14.145 3.906 3.902 10.234 3.902 14.144 0l5.61-5.61L409.77 494.121c.093.102.19.2.289.297 23.437 23.437 61.41 23.445 84.859-.004 23.383-23.394 23.383-61.46 0-84.855-.102-.102-.207-.2-.313-.297l-137.8-126.422 5.547-5.547c3.906-3.902 3.906-10.234 0-14.14s-10.235-3.907-14.145 0l-6.152 6.156-14.692-13.485 59.219-59.219a100.198 100.198 0 0025.906 3.391c55.14 0 99.996-44.86 99.996-99.996 0-10.926-1.754-21.668-5.214-31.934a9.99 9.99 0 00-7.211-6.546zM88.285 101.934c-1.875-1.88-4.418-2.836-7.074-2.836l-22.617-.008-35.492-59.258L40.34 22.594l59.156 35.5V80.71a9.997 9.997 0 002.922 7.062l125.656 125.942-14.144 14.14zm254.363 195.062l138.27 126.848c15.445 15.61 15.398 40.883-.145 56.433-15.578 15.578-40.796 15.625-56.437.137L297.258 342.38zm-14.75-13.535L283.7 327.652l-13.5-14.664 43.008-43.011zm84.59-103.465a79.917 79.917 0 01-25.558-4.168 10.017 10.017 0 00-10.262 2.406c-50.133 50.133-158.156 158.153-197.934 197.934a9.998 9.998 0 00-2.406 10.266c8.313 24.683 4.336 51.011-10.914 72.242-15.207 21.168-38.871 33.312-64.918 33.312-2.926 0-5.836-.16-8.719-.468l31.762-31.516a9.997 9.997 0 002.957-7.098v-28.289a10 10 0 00-2.93-7.07l-28.628-28.629a10 10 0 00-7.07-2.93h-28.29a10.012 10.012 0 00-7.101 2.957l-31.512 31.762a80.897 80.897 0 01-.469-8.719c0-26.05 12.14-49.71 33.313-64.918 21.226-15.25 47.558-19.23 72.246-10.914a9.993 9.993 0 0010.261-2.406c.551-.547 197.793-197.793 197.934-197.934a9.999 9.999 0 002.406-10.261c-8.316-24.684-4.347-51.004 10.89-72.22C362.767 32.149 386.435 20 412.485 20c3.016 0 6.012.168 8.98.496l-31.1 31.566a9.993 9.993 0 00-2.876 7.016v28.29a9.988 9.988 0 002.805 6.944l27.629 28.63a9.992 9.992 0 007.195 3.054h28.29a9.994 9.994 0 007.097-2.957l31.512-31.758c.312 2.883.468 5.793.468 8.719 0 44.11-35.886 79.996-79.996 79.996zm0 0"/><path d="M311.988 186.355L186.852 311.492c-3.903 3.903-3.903 10.235 0 14.14 3.906 3.907 10.238 3.907 14.144 0l125.137-125.136c3.906-3.902 3.906-10.234 0-14.14s-10.238-3.907-14.145 0zm0 0M438.355 452c3.907 3.895 10.239 3.895 14.145-.023 3.898-3.91 3.887-10.243-.023-14.141l-90.137-89.848c-3.91-3.898-10.246-3.886-14.14.024-3.903 3.914-3.891 10.242.019 14.14zm0 0"/></svg><svg viewBox="0 0 512.008 512.008" id="right-arrow" xmlns="http://www.w3.org/2000/svg"><path d="M508.885 248.468L306.219 45.801c-21.803-21.803-57.28-21.803-79.083 0s-21.803 57.28 0 79.083l77.781 77.781H53.333C23.936 202.665 0 226.601 0 255.999s23.936 53.333 53.333 53.333h251.584l-77.781 77.781c-21.803 21.803-21.803 57.28 0 79.083 10.901 10.901 25.216 16.363 39.552 16.363s28.629-5.44 39.552-16.363l202.667-202.667c4.138-4.16 4.138-10.901-.022-15.061z"/></svg><svg viewBox="0 0 24 24" id="telegram" xmlns="http://www.w3.org/2000/svg"><path d="M9.417 15.181l-.397 5.584c.568 0 .814-.244 1.109-.537l2.663-2.545 5.518 4.041c1.012.564 1.725.267 1.998-.931L23.93 3.821l.001-.001c.321-1.496-.541-2.081-1.527-1.714l-21.29 8.151c-1.453.564-1.431 1.374-.247 1.741l5.443 1.693L18.953 5.78c.595-.394 1.136-.176.691.218z"/></svg><svg viewBox="0 0 512 512" id="truck" xmlns="http://www.w3.org/2000/svg"><path d="M476.158 231.363l-13.259-53.035c3.625-.77 6.345-3.986 6.345-7.839v-8.551c0-18.566-15.105-33.67-33.67-33.67h-60.392V110.63c0-9.136-7.432-16.568-16.568-16.568H50.772c-9.136 0-16.568 7.432-16.568 16.568V256a8.017 8.017 0 0016.034 0V110.63c0-.295.239-.534.534-.534h307.841c.295 0 .534.239.534.534v145.372a8.017 8.017 0 0016.034 0v-9.088h94.569l.021.002.022-.001c11.637.008 21.518 7.646 24.912 18.171h-24.928a8.017 8.017 0 00-8.017 8.017v17.102c0 13.851 11.268 25.119 25.119 25.119h9.086v35.273h-20.962c-6.886-19.883-25.787-34.205-47.982-34.205s-41.097 14.322-47.982 34.205h-3.86v-60.393a8.017 8.017 0 00-16.034 0v60.391H192.817c-6.886-19.883-25.787-34.205-47.982-34.205s-41.097 14.322-47.982 34.205H50.772a.534.534 0 01-.534-.534v-17.637h34.739a8.017 8.017 0 000-16.034H8.017a8.017 8.017 0 000 16.034h26.188v17.637c0 9.136 7.432 16.568 16.568 16.568h43.304c-.002.178-.014.355-.014.534 0 27.996 22.777 50.772 50.772 50.772s50.772-22.776 50.772-50.772c0-.18-.012-.356-.014-.534h180.67c-.002.178-.014.355-.014.534 0 27.996 22.777 50.772 50.772 50.772 27.995 0 50.772-22.776 50.772-50.772 0-.18-.012-.356-.014-.534h26.203a8.017 8.017 0 008.017-8.017v-85.511c.001-21.112-15.576-38.653-35.841-41.738zm-100.976-87.062h60.392c9.725 0 17.637 7.912 17.637 17.637v.534h-78.029v-18.171zm0 86.58v-52.376h71.235l13.094 52.376h-84.329zM144.835 401.904c-19.155 0-34.739-15.583-34.739-34.739s15.584-34.739 34.739-34.739c19.155 0 34.739 15.583 34.739 34.739s-15.584 34.739-34.739 34.739zm282.188 0c-19.155 0-34.739-15.583-34.739-34.739s15.584-34.739 34.739-34.739c19.155 0 34.739 15.583 34.739 34.739s-15.584 34.739-34.739 34.739zm68.944-102.614h-9.086c-5.01 0-9.086-4.076-9.086-9.086v-9.086h18.171v18.172z"/><path d="M144.835 350.597c-9.136 0-16.568 7.432-16.568 16.568 0 9.136 7.432 16.568 16.568 16.568 9.136 0 16.568-7.432 16.568-16.568 0-9.136-7.432-16.568-16.568-16.568zM427.023 350.597c-9.136 0-16.568 7.432-16.568 16.568 0 9.136 7.432 16.568 16.568 16.568 9.136 0 16.568-7.432 16.568-16.568 0-9.136-7.432-16.568-16.568-16.568zM332.96 316.393H213.244a8.017 8.017 0 000 16.034H332.96a8.017 8.017 0 000-16.034zM127.733 282.188H25.119a8.017 8.017 0 000 16.034h102.614a8.017 8.017 0 000-16.034zM278.771 173.37a8.017 8.017 0 00-11.337.001l-71.292 71.291-37.087-37.087a8.016 8.016 0 00-11.337 0 8.016 8.016 0 000 11.337l42.756 42.756c1.565 1.566 3.617 2.348 5.668 2.348s4.104-.782 5.668-2.348l76.96-76.96a8.018 8.018 0 00.001-11.338z"/></svg><svg viewBox="0 0 504 504" id="viber" xmlns="http://www.w3.org/2000/svg"><path d="M377.6 0H126C56.8 0 0 56.8 0 126.4V378c0 69.2 56.8 126 126 126h251.6c69.6 0 126.4-56.8 126.4-126.4V126.4C504 56.8 447.2 0 377.6 0zM238.4 103.6c.8-12.4 12.4-8 18.4-8.8 75.2 2.4 140 70 139.2 142.8 0 7.2 2.4 17.6-8.4 17.6-10.4 0-7.6-10.8-8.8-18-10-77.2-46-113.6-124.4-125.6-6.4-.8-16.4.4-16-8zm112.4 137.2c-12 1.6-9.6-8.8-10.8-15.6-8-47.2-24.8-64.4-73.2-74.8-7.2-1.6-18.4-.4-16.4-11.2 1.6-10.4 11.6-6.8 19.2-6 48.4 5.6 88 46.8 87.6 92-.8 4.8 2.4 14-6.4 15.6zm-30-24.8c0 6.4-.8 12.4-8 13.2-5.2.8-8.4-3.6-9.2-8.8-2-19.2-12.4-30.8-32.4-34-6-.8-11.6-2.8-8.8-10.8 2-5.2 6.8-6 12-6 21.6-.4 46.4 24.8 46.4 46.4zm76 147.6c-8.4 22.8-36.8 46-61.2 45.6-3.6-.8-10.4-2-16.4-4.4C212 359.6 134 285.2 90 178.8c-14.8-35.6.8-66 38-78 6.8-2.4 13.2-2.4 20 0 16 5.6 56.4 60.4 57.2 76.4.8 12.4-8 19.2-16.4 24.8-16.4 10.8-16.4 24.4-9.2 40 15.6 34.4 42.4 58.4 77.2 73.6 12.4 5.6 24.8 5.2 33.2-7.6 15.2-22.8 34-21.6 54.4-7.6 10.4 7.2 20.8 14 30.4 21.6 13.2 10.8 30 19.6 22 41.6z"/></svg><svg viewBox="0 0 512 512" id="whatsapp" xmlns="http://www.w3.org/2000/svg"><path d="M256.064 0h-.128C114.784 0 0 114.816 0 256c0 56 18.048 107.904 48.736 150.048l-31.904 95.104 98.4-31.456C155.712 496.512 204 512 256.064 512 397.216 512 512 397.152 512 256S397.216 0 256.064 0zm148.96 361.504c-6.176 17.44-30.688 31.904-50.24 36.128-13.376 2.848-30.848 5.12-89.664-19.264-75.232-31.168-123.68-107.616-127.456-112.576-3.616-4.96-30.4-40.48-30.4-77.216s18.656-54.624 26.176-62.304c6.176-6.304 16.384-9.184 26.176-9.184 3.168 0 6.016.16 8.576.288 7.52.32 11.296.768 16.256 12.64 6.176 14.88 21.216 51.616 23.008 55.392 1.824 3.776 3.648 8.896 1.088 13.856-2.4 5.12-4.512 7.392-8.288 11.744-3.776 4.352-7.36 7.68-11.136 12.352-3.456 4.064-7.36 8.416-3.008 15.936 4.352 7.36 19.392 31.904 41.536 51.616 28.576 25.44 51.744 33.568 60.032 37.024 6.176 2.56 13.536 1.952 18.048-2.848 5.728-6.176 12.8-16.416 20-26.496 5.12-7.232 11.584-8.128 18.368-5.568 6.912 2.4 43.488 20.48 51.008 24.224 7.52 3.776 12.48 5.568 14.304 8.736 1.792 3.168 1.792 18.048-4.384 35.52z"/></svg></svg>