<?xml version="1.0" encoding="iso-8859-1"?><!DOCTYPE svg PUBLIC "-//W3C//DTD SVG 1.1//EN" "http://www.w3.org/Graphics/SVG/1.1/DTD/svg11.dtd"><svg viewBox="0 0 612 612" xmlns="http://www.w3.org/2000/svg" xmlns:xlink="http://www.w3.org/1999/xlink"><style>:root>svg{display:none}:root>svg:target{display:block}</style><svg viewBox="0 0 512 512" id="1-resume" xmlns="http://www.w3.org/2000/svg"><path d="M414.007 148.75c5.522 0 10-4.477 10-10V30c0-16.542-13.458-30-30-30h-364c-16.542 0-30 13.458-30 30v452c0 16.542 13.458 30 30 30h364c16.542 0 30-13.458 30-30v-73.672c0-5.523-4.478-10-10-10s-10 4.477-10 10V482c0 5.514-4.486 10-10 10h-364c-5.514 0-10-4.486-10-10V30c0-5.514 4.486-10 10-10h364c5.514 0 10 4.486 10 10v108.75c0 5.523 4.478 10 10 10z"/><path d="M212.007 54c-50.729 0-92 41.271-92 92 0 26.317 11.11 50.085 28.882 66.869.333.356.687.693 1.074 1 16.371 14.979 38.158 24.13 62.043 24.13 23.885 0 45.672-9.152 62.043-24.13a9.993 9.993 0 001.074-1c17.774-16.784 28.884-40.552 28.884-66.869 0-50.729-41.271-92-92-92zm0 164c-16.329 0-31.399-5.472-43.491-14.668 8.789-15.585 25.19-25.332 43.491-25.332s34.702 9.747 43.491 25.332C243.405 212.528 228.336 218 212.007 218zm-16-76v-6.5c0-8.822 7.178-16 16-16s16 7.178 16 16v6.5c0 8.822-7.178 16-16 16s-16-7.178-16-16zm73.94 46.683a69.375 69.375 0 00-29.463-24.697c4.71-6.087 7.523-13.712 7.523-21.986v-6.5c0-19.851-16.149-36-36-36s-36 16.149-36 36v6.5c0 8.274 2.813 15.899 7.523 21.986a69.375 69.375 0 00-29.463 24.697c-8.829-11.953-14.06-26.716-14.06-42.683 0-39.701 32.299-72 72-72s72 32.299 72 72c0 15.967-5.231 30.73-14.06 42.683zM266.007 438h-54c-5.522 0-10 4.477-10 10s4.478 10 10 10h54c5.522 0 10-4.477 10-10s-4.478-10-10-10zM266.007 382h-142c-5.522 0-10 4.477-10 10s4.478 10 10 10h142c5.522 0 10-4.477 10-10s-4.478-10-10-10zM266.007 326h-142c-5.522 0-10 4.477-10 10s4.478 10 10 10h142c5.522 0 10-4.477 10-10s-4.478-10-10-10zM88.366 272.93a10.077 10.077 0 00-7.079-2.93c-2.631 0-5.211 1.07-7.07 2.93-1.86 1.86-2.93 4.44-2.93 7.07s1.069 5.21 2.93 7.07a10.092 10.092 0 007.07 2.93c2.64 0 5.21-1.07 7.079-2.93 1.86-1.86 2.931-4.44 2.931-7.07s-1.07-5.21-2.931-7.07zM88.366 328.93a10.095 10.095 0 00-7.079-2.93c-2.631 0-5.2 1.07-7.07 2.93-1.86 1.86-2.93 4.44-2.93 7.07s1.069 5.21 2.93 7.07a10.092 10.092 0 007.07 2.93c2.64 0 5.21-1.07 7.079-2.93 1.86-1.86 2.931-4.44 2.931-7.07s-1.07-5.21-2.931-7.07zM88.366 384.93a10.095 10.095 0 00-7.079-2.93c-2.631 0-5.2 1.07-7.07 2.93-1.86 1.86-2.93 4.44-2.93 7.07s1.069 5.21 2.93 7.07a10.072 10.072 0 007.07 2.93c2.64 0 5.22-1.07 7.079-2.93 1.86-1.86 2.931-4.44 2.931-7.07s-1.07-5.21-2.931-7.07zM266.007 270h-142c-5.522 0-10 4.477-10 10s4.478 10 10 10h142c5.522 0 10-4.477 10-10s-4.478-10-10-10zM491.002 130.32c-9.715-5.609-21.033-7.099-31.871-4.196-10.836 2.904-19.894 9.854-25.502 19.569L307.787 363.656a10.016 10.016 0 00-1.278 3.891l-8.858 79.344a10.004 10.004 0 009.937 11.11 9.99 9.99 0 005.931-1.948l64.284-47.344a9.983 9.983 0 002.73-3.052l125.841-217.963c11.58-20.056 4.684-45.794-15.372-57.374zM320.063 426.394l4.626-41.432 28.942 16.71-33.568 24.722zm48.15-39.398l-38.105-22 100.985-174.91 38.105 22-100.985 174.91zm120.841-209.303l-9.857 17.073-38.105-22 9.857-17.073a21.855 21.855 0 0113.358-10.25 21.85 21.85 0 0116.694 2.198 21.855 21.855 0 0110.25 13.358 21.856 21.856 0 01-2.197 16.694z"/></svg><svg viewBox="0 0 512 512" id="1-search" xmlns="http://www.w3.org/2000/svg"><path d="M498.838 435.213l-90.405-90.423a241.902 241.902 0 01-63.644 63.644l90.416 90.413C443.98 507.62 455.494 512 467.022 512s23.042-4.38 31.816-13.154c17.549-17.549 17.549-46.084 0-63.633zM210 90c-66.167 0-120 53.833-120 120s53.833 120 120 120 120-53.833 120-120S276.167 90 210 90z"/><path d="M210 0C94.204 0 0 94.204 0 210s94.204 210 210 210 210-94.204 210-210S325.796 0 210 0zm0 360c-82.705 0-150-67.295-150-150S127.295 60 210 60s150 67.295 150 150-67.295 150-150 150z"/></svg><svg viewBox="0 0 511.097 511.097" id="2-calendar" xmlns="http://www.w3.org/2000/svg"><path d="M402 237.452v109.097h109.097C504.254 289.59 458.958 244.295 402 237.452z"/><path d="M372 361.548V237.452c-61.878 7.434-110 60.248-110 124.097 0 68.925 56.075 125 125 125 63.849 0 116.663-48.122 124.097-110H387c-8.284-.001-15-6.716-15-15.001zM128 119.548c8.284 0 15-6.716 15-15v-65c0-8.284-6.716-15-15-15s-15 6.716-15 15v65c0 8.285 6.716 15 15 15zM256 119.548c8.284 0 15-6.716 15-15v-65c0-8.284-6.716-15-15-15s-15 6.716-15 15v65c0 8.285 6.716 15 15 15z"/><path d="M458 56.548h-29v48c0 24.813-20.187 45-45 45s-45-20.187-45-45v-48h-38v48c0 24.813-20.187 45-45 45s-45-20.187-45-45v-48h-38v48c0 24.813-20.187 45-45 45s-45-20.187-45-45v-48H45c-24.813 0-45 20.187-45 45v276c0 24.813 20.187 45 45 45h199.518c-8.05-18.732-12.518-39.353-12.518-61 0-85.467 69.533-155 155-155 46.115 0 87.582 20.25 116 52.316V101.548c0-24.813-20.187-45-45-45zm-354 286H80c-8.284 0-15-6.716-15-15s6.716-15 15-15h24c8.284 0 15 6.716 15 15s-6.716 15-15 15zm0-64H80c-8.284 0-15-6.716-15-15s6.716-15 15-15h24c8.284 0 15 6.716 15 15s-6.716 15-15 15zm0-64H80c-8.284 0-15-6.716-15-15s6.716-15 15-15h24c8.284 0 15 6.716 15 15s-6.716 15-15 15zm88 128h-24c-8.284 0-15-6.716-15-15s6.716-15 15-15h24c8.284 0 15 6.716 15 15s-6.716 15-15 15zm0-64h-24c-8.284 0-15-6.716-15-15s6.716-15 15-15h24c8.284 0 15 6.716 15 15s-6.716 15-15 15zm0-64h-24c-8.284 0-15-6.716-15-15s6.716-15 15-15h24c8.284 0 15 6.716 15 15s-6.716 15-15 15z"/><path d="M384 119.548c8.284 0 15-6.716 15-15v-65c0-8.284-6.716-15-15-15s-15 6.716-15 15v65c0 8.285 6.716 15 15 15z"/></svg><svg viewBox="0 0 512 512" id="2-support" xmlns="http://www.w3.org/2000/svg"><path d="M366 396c-5.52 0-10 4.48-10 10s4.48 10 10 10 10-4.48 10-10-4.48-10-10-10z"/><path d="M390.622 363.663l-47.53-15.84-17.063-34.127c15.372-15.646 26.045-36.348 29.644-57.941L357.801 243H376c16.542 0 30-13.458 30-30v-63C406 67.29 338.71 0 256 0c-82.922 0-150 67.097-150 150v63c0 13.036 8.361 24.152 20 28.28V253c0 16.542 13.458 30 30 30h8.782a108.487 108.487 0 0016.774 25.974 103.947 103.947 0 004.406 4.741l-17.054 34.108-47.531 15.841C66.112 382.092 26 440.271 26 502c0 5.523 4.477 10 10 10h440c5.522 0 10-4.477 10-10 0-61.729-40.111-119.908-95.378-138.337zM386 213c0 5.514-4.486 10-10 10h-15.262c2.542-19.69 4.236-40.643 4.917-61.28.02-.582.036-1.148.054-1.72H386v53zm-250 10c-5.514 0-10-4.486-10-10v-53h20.298c.033 1.043.068 2.091.107 3.146l.004.107v.009c.7 20.072 2.372 40.481 4.856 59.737H136V223zm20 40c-5.514 0-10-4.486-10-10v-10h8.198l2.128 12.759a105.57 105.57 0 001.482 7.241H156zm-9.983-123H126.38C131.445 72.979 187.377 20 256 20c68.318 0 124.496 52.972 129.619 120h-19.635c-.72-55.227-45.693-100-101.033-100h-17.9c-55.339 0-100.315 44.773-101.034 100zM247.05 60h17.9c44.809 0 81.076 36.651 81.05 81.41 0 3.147-.025 5.887-.078 8.38l-.001.098-12.508-1.787c-33.98-4.852-66.064-20.894-90.342-45.172A10.003 10.003 0 00236 100c-26.856 0-52.564 12.236-69.558 32.908C170.63 92.189 205.053 60 247.05 60zm-68.51 203c-5.006-16.653-10.734-65.653-12-97.053l13.459-17.946c12.361-16.476 31.592-26.713 52.049-27.888 26.917 25.616 61.739 42.532 98.537 47.786l14.722 2.104c-.984 20.885-2.995 41.843-5.876 61.118l-.003.02c-.916 6.197-1.638 10.185-3.482 21.324-5.296 31.765-28.998 60.49-60.287 68.313a81.338 81.338 0 01-39.313 0c-19.537-4.884-37.451-18.402-49.012-37.778h20.386c4.128 11.639 15.243 20 28.28 20h20c16.575 0 30-13.424 30-30 0-16.542-13.458-30-30-30h-20c-13.327 0-24.278 8.608-28.297 20H178.54zm56.619 78.016A101.171 101.171 0 00256 343.2c5.471 0 10.943-.458 16.353-1.346l-17.67 18.687-19.524-19.525zm5.776 34.063l-31.718 33.542a381.013 381.013 0 01-22.389-51.917l11.911-23.822 42.196 42.197zm70.631-45.585l13.604 27.209a380.908 380.908 0 01-22.392 51.933l-33.948-33.948 42.736-45.194zM226 273c0-5.521 4.478-10 10-10h20c5.514 0 10 4.486 10 10 0 5.522-4.479 10-10 10h-20c-5.514 0-10-4.486-10-10zM46.4 492c3.963-49.539 36.932-94.567 81.302-109.363l42.094-14.028a400.869 400.869 0 0028.463 61.74l.056.101.001.002a400.974 400.974 0 0027.372 41.799L237.99 492H46.4zm209.6-8.914l-13.562-21.773a10.133 10.133 0 00-.486-.711 381.284 381.284 0 01-22.532-33.662l35.663-37.714 37.578 37.578A380.863 380.863 0 01270.05 460.6c-.49.653.205-.376-14.05 22.486zM274.01 492l12.301-19.748a400.826 400.826 0 0027.564-42.132c.05-.088.097-.178.147-.266l.018-.032a400.543 400.543 0 0028.164-61.213l42.093 14.028c44.371 14.796 77.34 59.824 81.303 109.363H274.01z"/><path d="M435.546 451.531c-6.683-13.377-16.472-25.261-28.309-34.367-4.378-3.369-10.656-2.55-14.023 1.828-3.368 4.378-2.549 10.656 1.828 14.024 9.454 7.273 17.272 16.766 22.611 27.453 2.473 4.949 8.483 6.941 13.415 4.477 4.94-2.468 6.945-8.474 4.478-13.415z"/></svg><svg viewBox="0 0 512 512" id="3-check" xmlns="http://www.w3.org/2000/svg"><path d="M491.375 157.662c-13.15-30.297-31.856-57.697-55.598-81.439s-51.142-42.448-81.439-55.598C322.809 6.939 289.723 0 256 0s-66.809 6.939-98.338 20.625c-30.297 13.15-57.697 31.856-81.439 55.598-23.742 23.742-42.448 51.142-55.598 81.439C6.939 189.191 0 222.277 0 256s6.939 66.809 20.625 98.338c13.149 30.297 31.855 57.697 55.598 81.439 23.742 23.742 51.142 42.448 81.439 55.598C189.191 505.061 222.277 512 256 512s66.809-6.939 98.338-20.625c30.297-13.15 57.697-31.856 81.439-55.598s42.448-51.142 55.598-81.439C505.061 322.809 512 289.723 512 256s-6.939-66.809-20.625-98.338zM256 492C128.075 492 20 383.925 20 256S128.075 20 256 20s236 108.075 236 236-108.075 236-236 236z"/><path d="M451.975 173.804c-10.87-25.256-26.363-48.044-46.049-67.729-19.686-19.686-42.473-35.179-67.729-46.049C311.948 48.728 284.293 43 256 43c-38.462 0-78.555 13.134-115.945 37.981-4.6 3.057-5.851 9.264-2.794 13.863 3.057 4.6 9.264 5.85 13.863 2.794C185.224 74.978 221.489 63 256 63c104.617 0 193 88.383 193 193s-88.383 193-193 193S63 360.617 63 256c0-34.504 11.975-70.771 34.629-104.877 3.056-4.601 1.804-10.807-2.796-13.863-4.602-3.056-10.807-1.803-13.863 2.797C56.13 177.454 43 217.546 43 256c0 28.293 5.728 55.948 17.025 82.196 10.87 25.256 26.363 48.044 46.049 67.729 19.686 19.687 42.473 35.179 67.73 46.05C200.052 463.272 227.707 469 256 469s55.948-5.728 82.196-17.025c25.256-10.87 48.044-26.363 67.729-46.049 19.686-19.686 35.179-42.473 46.049-67.729C463.272 311.948 469 284.293 469 256s-5.728-55.948-17.025-82.196z"/><path d="M115 105c-5.52 0-10 4.48-10 10s4.48 10 10 10 10-4.48 10-10-4.48-10-10-10zM374.281 177.719C366.724 170.162 356.681 166 346 166c-10.681 0-20.724 4.162-28.281 11.719L226 269.438l-31.719-31.719C186.724 230.162 176.681 226 166 226c-10.681 0-20.724 4.162-28.278 11.716C130.163 245.269 126 255.313 126 266s4.163 20.731 11.719 28.281l60 60C205.276 361.838 215.32 366 226 366s20.724-4.162 28.281-11.719l119.997-119.997C381.837 226.731 386 216.687 386 206s-4.163-20.731-11.719-28.281zm-14.142 42.42l-120 120C236.359 343.918 231.338 346 226 346s-10.359-2.082-14.139-5.861l-60.003-60.003C148.081 276.361 146 271.341 146 266s2.081-10.361 5.861-14.139c3.78-3.779 8.801-5.861 14.139-5.861s10.359 2.082 14.139 5.861L226 297.722l105.861-105.861c3.78-3.779 8.801-5.861 14.139-5.861s10.359 2.082 14.142 5.864C363.919 195.639 366 200.659 366 206s-2.081 10.361-5.861 14.139z"/></svg><svg viewBox="0 0 612 612" id="3-truck" xmlns="http://www.w3.org/2000/svg"><path d="M21.474 377.522V117.138c0-14.469 11.729-26.199 26.199-26.199h260.25c14.469 0 26.198 11.73 26.198 26.199v260.385a8.732 8.732 0 01-8.733 8.733H30.207a8.733 8.733 0 01-8.733-8.734zm210.16 89.202c0 30.01-24.329 54.338-54.338 54.338s-54.338-24.328-54.338-54.338c0-30.011 24.329-54.338 54.338-54.338s54.338 24.327 54.338 54.338zm-27.17 0c0-15.005-12.164-27.169-27.169-27.169s-27.17 12.164-27.17 27.169 12.165 27.17 27.17 27.17 27.169-12.165 27.169-27.17zm-73.969-54.339H8.733A8.733 8.733 0 000 421.118v26.495a8.733 8.733 0 008.733 8.733h97.598c2.548-17.484 11.373-32.928 24.164-43.961zm385.443 54.339c0 30.01-24.329 54.338-54.338 54.338-30.01 0-54.338-24.328-54.338-54.338 0-30.011 24.328-54.338 54.338-54.338 30.009-.001 54.338 24.327 54.338 54.338zm-27.168 0c0-15.005-12.165-27.169-27.17-27.169-15.006 0-27.169 12.164-27.169 27.169s12.164 27.17 27.169 27.17 27.17-12.165 27.17-27.17zM612 421.118v26.495a8.733 8.733 0 01-8.733 8.733h-70.704c-5.057-34.683-34.906-61.427-70.961-61.427-36.062 0-65.912 26.745-70.969 61.427H248.261c-2.549-17.483-11.373-32.928-24.164-43.961h134.994V162.594c0-9.646 7.82-17.466 17.466-17.466h82.445a69.86 69.86 0 0157.9 30.77l53.15 78.721a69.865 69.865 0 0111.962 39.094v118.672h21.253a8.733 8.733 0 018.733 8.733zm-88.592-164.483l-42.501-60.393a8.734 8.734 0 00-7.142-3.707H407.47a8.734 8.734 0 00-8.733 8.733v60.393a8.732 8.732 0 008.733 8.733h108.798c7.074 0 11.212-7.973 7.14-13.759z"/></svg><svg viewBox="0 0 512 512" id="4-technical-support" xmlns="http://www.w3.org/2000/svg"><path d="M90.05 395.95c-7.167 0-14.058 1.788-20.171 5.148C37.676 359.816 20 308.535 20 256 20 125.867 125.867 20 256 20c15.82 0 31.633 1.574 47 4.68 5.406 1.093 10.688-2.407 11.781-7.82s-2.406-10.688-7.82-11.786C290.293 1.707 273.148 0 256 0 187.621 0 123.332 26.629 74.98 74.98 26.63 123.332 0 187.621 0 256c0 57.52 19.531 113.652 55.09 158.652-4.578 6.84-7.04 14.88-7.04 23.297 0 11.219 4.372 21.766 12.305 29.696 7.93 7.933 18.477 12.304 29.696 12.304s21.765-4.37 29.699-12.304c7.934-7.93 12.3-18.48 12.3-29.7 0-11.215-4.366-21.765-12.3-29.695-7.934-7.934-18.48-12.3-29.7-12.3zm15.555 57.554c-4.152 4.156-9.68 6.445-15.554 6.445s-11.399-2.289-15.555-6.445-6.445-9.68-6.445-15.555c0-5.879 2.289-11.402 6.445-15.558 4.152-4.157 9.68-6.442 15.555-6.442s11.398 2.29 15.554 6.442a21.856 21.856 0 016.446 15.558c0 5.875-2.29 11.399-6.446 15.555zm0 0M456.902 97.336c10.871-16.309 9.125-38.606-5.254-52.984-7.933-7.93-18.48-12.301-29.699-12.301s-21.765 4.37-29.699 12.3c-7.934 7.934-12.3 18.481-12.3 29.7s4.366 21.765 12.3 29.699 18.48 12.3 29.7 12.3c7.167 0 14.058-1.788 20.171-5.148C474.324 152.187 492 203.465 492 256c0 130.133-105.867 236-236 236-15.664 0-31.328-1.543-46.55-4.59-5.415-1.082-10.684 2.43-11.77 7.844-1.082 5.418 2.43 10.683 7.843 11.77A258.08 258.08 0 00256 512c68.379 0 132.668-26.629 181.02-74.98C485.37 388.668 512 324.379 512 256c0-57.523-19.535-113.66-55.098-158.664zm-50.507-7.727a21.856 21.856 0 01-6.446-15.558c0-5.875 2.29-11.399 6.446-15.555 4.152-4.156 9.68-6.445 15.554-6.445s11.403 2.289 15.559 6.445c8.574 8.578 8.574 22.535 0 31.113a21.875 21.875 0 01-15.559 6.442 21.853 21.853 0 01-15.554-6.442zm0 0"/><path d="M214.734 428c0 5.523 4.48 10 10 10h62.528c5.523 0 10-4.477 10-10v-19.387a156.596 156.596 0 0037.531-15.554l13.687 13.687a9.994 9.994 0 0014.145-.004l44.195-44.226c3.903-3.907 3.903-10.239 0-14.141l-13.672-13.672a156.596 156.596 0 0015.555-37.531h19.313c5.523 0 10-4.477 10-10v-62.527c0-5.524-4.477-10-10-10h-19.317a156.623 156.623 0 00-15.55-37.528l13.597-13.597a10.009 10.009 0 002.93-7.075 10.029 10.029 0 00-2.934-7.074l-44.23-44.195c-3.903-3.903-10.235-3.903-14.14.004l-13.579 13.582a156.596 156.596 0 00-37.531-15.555V84c0-5.523-4.477-10-10-10h-62.528c-5.52 0-10 4.477-10 10v19.21a156.464 156.464 0 00-37.527 15.552l-13.582-13.582c-3.902-3.903-10.234-3.907-14.14-.004l-44.227 44.199a9.987 9.987 0 00-2.934 7.07c0 2.653 1.055 5.2 2.93 7.075l13.598 13.597a156.568 156.568 0 00-15.555 37.528H84.02c-5.524 0-10 4.476-10 9.996l-.036 62.527c-.004 2.652 1.051 5.2 2.926 7.074s4.418 2.93 7.074 2.93h19.313a156.596 156.596 0 0015.555 37.531l-13.672 13.672c-3.903 3.902-3.907 10.234 0 14.14l44.195 44.227a10.003 10.003 0 007.07 2.934h.004a10 10 0 007.07-2.93l13.684-13.687a156.728 156.728 0 0037.531 15.554zm-33.609-55.973a10.003 10.003 0 00-12.5 1.328l-12.176 12.176-30.058-30.082 12.164-12.168a9.997 9.997 0 001.328-12.496c-9.067-14.031-15.442-29.41-18.942-45.715a10.003 10.003 0 00-9.777-7.898H93.988l.024-42.527h17.152a9.999 9.999 0 009.777-7.899c3.5-16.3 9.875-31.68 18.942-45.71a9.997 9.997 0 00-1.328-12.497l-12.086-12.09 30.082-30.058 12.074 12.078a10.007 10.007 0 0012.5 1.328c14.027-9.067 29.406-15.442 45.71-18.942a10.006 10.006 0 007.9-9.777V94h42.527v17.074c0 4.715 3.289 8.79 7.898 9.778a136.936 136.936 0 0145.711 18.941 9.992 9.992 0 0012.496-1.328l12.078-12.074 30.082 30.058-12.086 12.086a9.998 9.998 0 00-1.328 12.5 136.97 136.97 0 0118.942 45.711 9.996 9.996 0 009.777 7.899h17.184v42.527h-17.184a10.003 10.003 0 00-9.777 7.898 136.855 136.855 0 01-18.942 45.711 10.002 10.002 0 001.328 12.5l12.164 12.164-30.058 30.082-12.176-12.172a9.998 9.998 0 00-12.5-1.328 136.97 136.97 0 01-45.71 18.942 9.999 9.999 0 00-7.9 9.777V418h-42.527v-17.254c0-4.71-3.293-8.785-7.898-9.777-16.3-3.5-31.68-9.875-45.711-18.942zm0 0"/><path d="M338.629 256c0-45.563-37.067-82.629-82.629-82.629S173.371 210.437 173.371 256s37.066 82.629 82.629 82.629 82.629-37.066 82.629-82.629zm-145.258 0c0-34.535 28.094-62.629 62.629-62.629S318.629 221.47 318.629 256 290.535 318.629 256 318.629 193.371 290.535 193.371 256zm0 0M348.078 37.82c2.633 0 5.211-1.07 7.07-2.93a10.121 10.121 0 002.93-7.081c0-2.618-1.066-5.2-2.93-7.07a10.073 10.073 0 00-7.07-2.93 10.05 10.05 0 00-7.066 2.93 10.087 10.087 0 00-2.934 7.07c0 2.64 1.07 5.21 2.934 7.082a10.05 10.05 0 007.066 2.93zm0 0M164.36 474.36a10.08 10.08 0 00-7.07 2.93 10.08 10.08 0 00-2.93 7.07c0 2.64 1.07 5.21 2.93 7.07 1.858 1.86 4.44 2.93 7.07 2.93s5.21-1.07 7.07-2.93c1.86-1.86 2.93-4.442 2.93-7.07s-1.07-5.212-2.93-7.07a10.08 10.08 0 00-7.07-2.93zm0 0"/></svg><svg viewBox="-48 0 512 512" id="4-user" xmlns="http://www.w3.org/2000/svg"><path d="M301 335.547v.789c0 51.39-41.809 93.2-93.2 93.2s-93.198-41.81-93.198-93.2v-.79A170.803 170.803 0 000 497c0 8.285 6.715 15 15 15h385.602c8.28 0 15-6.723 15-15.008 0-72.902-45.95-137.46-114.602-161.445zm0 0"/><path d="M144.602 336.05v.286c0 34.848 28.351 63.2 63.199 63.2 34.847 0 63.199-28.352 63.199-63.2v-.39c-19.355 8.515-40.734 13.253-63.2 13.253-22.116 0-43.534-4.535-63.198-13.148zm0 0M395.266 175.668v-32.133c0-12.59-4.903-24.426-13.797-33.32a46.903 46.903 0 00-16.203-10.578v119.949a46.832 46.832 0 0016.195-10.59c8.902-8.902 13.805-20.738 13.805-33.328zm0 0M159.602 64.266c6.953 0 12.953 4.78 14.574 11.46a69.732 69.732 0 0067.726 52.805h93.364V95.316C335.266 42.758 292.508 0 239.949 0h-64.3c-52.555 0-95.317 42.758-95.317 95.316v6.813l72.559-36.277a14.98 14.98 0 016.71-1.586zm0 0"/><path d="M207.8 319.2c70.286 0 127.466-57.18 127.466-127.466v-33.203h-93.364a99.683 99.683 0 01-90.78-58.254l-70.79 35.395v56.078c0 34.043 13.258 66.047 37.332 90.121 24.074 24.07 56.078 37.328 90.137 37.328zm0 0M80.332 319.2c8.285 0 15-6.716 15-15 0-8.286-6.715-15-15-15-15.98 0-30-23.02-30-49.266V99.637a46.852 46.852 0 00-16.2 10.578c-8.898 8.894-13.8 20.726-13.8 33.316v96.403c0 20.214 5.645 39.41 15.895 54.046 11.222 16.028 27.296 25.22 44.105 25.22zm0 0"/></svg><svg viewBox="0 0 512 512" id="5-box" xmlns="http://www.w3.org/2000/svg"><path d="M155.999 370.002c-5.52 0-10 4.48-10 10s4.48 10 10 10 10-4.48 10-10-4.48-10-10-10z"/><path d="M450.143 190.001l58.929-58.929a10 10 0 00-4.122-16.626l-143.5-44.29C348.514 28.575 310.066.002 265.999.002c-40.964 0-77.6 24.965-92.763 62.625L7.022 114.455a10 10 0 00-4.094 16.618l60.479 60.479-38.144 63.575a10.001 10.001 0 005.413 14.632l55.323 18.44v153.802a10 10 0 006.489 9.363c33.827 12.684 159.512 59.822 160.187 60.061a9.962 9.962 0 006.398.089c.029-.01.059-.016.088-.026l180-60a10.001 10.001 0 006.838-9.487v-157.92l58.998-18.54a10 10 0 004.074-16.611l-58.928-58.929zm-84.144-89.999c0-2.541-.107-5.076-.298-7.603l117.494 36.265-49.897 49.896-81.528-27.173c9.232-15.431 14.229-33.237 14.229-51.385zM190.326 73.974c11.101-32.282 41.512-53.972 75.673-53.972 36.801 0 68.719 24.892 77.618 60.532a80.446 80.446 0 012.382 19.468c0 18.574-6.164 35.983-17.828 50.352-15.277 18.842-37.938 29.648-62.172 29.648-26.196 0-50.767-12.858-65.733-34.404-9.333-13.406-14.267-29.174-14.267-45.596 0-8.931 1.455-17.688 4.327-26.028zM28.764 128.625l138.3-43.124a100.825 100.825 0 00-1.065 14.5c0 16.101 3.814 31.696 11.084 45.767L78.7 178.56l-49.936-49.935zm20.063 126.102l31.62-52.702 160.563 53.521-31.619 52.702-160.564-53.521zm197.172 232.845l-140-52.5V294.866c110.15 36.522 104.771 35.407 107.838 35.407 3.438 0 6.73-1.779 8.577-4.856l23.585-39.311v201.466zm10-248.111l-148.376-49.458 80.794-26.93c18.91 23.247 47.377 36.929 77.582 36.929 27.942 0 54.203-11.499 73.092-31.759l65.284 21.759-148.376 49.459zm170 195.333l-160 53.333v-209.62l35.451 44.31a10.002 10.002 0 0010.807 3.293l113.742-35.743v144.427zM312.791 304.979l-40.024-50.026 160.531-53.51 49.964 49.964-170.471 53.572z"/><path d="M219.511 392.198l-22.24-8.34c-5.171-1.938-10.935.681-12.875 5.852-1.939 5.172.681 10.936 5.852 12.875l22.24 8.34c5.182 1.942 10.939-.69 12.875-5.852 1.939-5.171-.681-10.936-5.852-12.875zM219.51 434.918l-60-22.5c-5.171-1.939-10.935.681-12.875 5.852-1.94 5.171.681 10.936 5.852 12.875l60 22.5a9.975 9.975 0 003.51.64c4.049 0 7.859-2.477 9.365-6.492 1.94-5.172-.68-10.936-5.852-12.875zM323.071 62.93c-3.905-3.906-10.237-3.905-14.143 0l-52.929 52.93-12.929-12.929c-3.905-3.905-10.237-3.905-14.143 0-3.906 3.905-3.905 10.237 0 14.143l20.001 19.999c3.905 3.905 10.237 3.905 14.143 0l60-60c3.905-3.905 3.905-10.237 0-14.143z"/></svg><svg viewBox="0 0 511.343 511.343" id="buy" xmlns="http://www.w3.org/2000/svg"><path d="M490.334 106.668H90.526l-5.943-66.207c-.972-10.827-10.046-19.123-20.916-19.123H21c-11.598 0-21 9.402-21 21s9.402 21 21 21h23.468C57.293 206.22 24.147-163.077 68.621 332.427c1.714 19.394 12.193 40.439 30.245 54.739C66.319 428.73 96.057 490.005 149 490.005c43.942 0 74.935-43.826 59.866-85.334h114.936c-15.05 41.455 15.876 85.334 59.866 85.334 35.106 0 63.667-28.561 63.667-63.667s-28.561-63.667-63.667-63.667H149.142c-15.952 0-29.853-9.624-35.853-23.646l335.608-19.724a21.002 21.002 0 0019.141-15.87l42.67-170.67c3.308-13.234-6.71-26.093-20.374-26.093zM149 448.005c-11.946 0-21.666-9.72-21.666-21.667s9.72-21.667 21.666-21.667c11.947 0 21.667 9.72 21.667 21.667s-9.72 21.667-21.667 21.667zm234.667 0c-11.947 0-21.667-9.72-21.667-21.667s9.72-21.667 21.667-21.667 21.667 9.72 21.667 21.667-9.72 21.667-21.667 21.667zm47.366-169.726l-323.397 19.005-13.34-148.617h369.142z"/></svg><svg viewBox="0 0 512 512" id="facebook" xmlns="http://www.w3.org/2000/svg"><path d="M512 256C512 114.6 397.4 0 256 0S0 114.6 0 256s114.6 256 256 256c1.5 0 3 0 4.5-.1V312.7h-55v-64.1h55v-47.2c0-54.7 33.4-84.5 82.2-84.5 23.4 0 43.5 1.7 49.3 2.5v57.2h-33.6c-26.5 0-31.7 12.6-31.7 31.1v40.8h63.5l-8.3 64.1h-55.2v189.5C433.7 471.4 512 372.9 512 256z"/></svg><svg viewBox="0 0 512 512" id="icon-facebook" xmlns="http://www.w3.org/2000/svg"><path d="M483.738 0h-455.5C12.641.008-.004 12.66 0 28.262v455.5C.008 499.359 12.66 512.004 28.262 512h455.476c15.606.004 28.258-12.645 28.262-28.25V28.238C511.992 12.641 499.34-.004 483.738 0zm0 0" fill="#4267b2"/><path d="M353.5 512V314h66.75l10-77.5H353.5v-49.36c0-22.386 6.215-37.64 38.316-37.64H432.5V80.371c-7.078-.941-31.363-3.047-59.621-3.047-59 0-99.379 36-99.379 102.14V236.5H207V314h66.5v198zm0 0" fill="#fff"/></svg><svg viewBox="0 0 24 24" id="icon-instagram" xmlns="http://www.w3.org/2000/svg"><linearGradient id="ma" gradientTransform="matrix(0 -1.982 -1.844 0 -132.522 -51.077)" gradientUnits="userSpaceOnUse" x1="-37.106" x2="-26.555" y1="-72.705" y2="-84.047"><stop offset="0" stop-color="#fd5"/><stop offset=".5" stop-color="#ff543e"/><stop offset="1" stop-color="#c837ab"/></linearGradient><path d="M1.5 1.633C-.386 3.592 0 5.673 0 11.995c0 5.25-.916 10.513 3.878 11.752 1.497.385 14.761.385 16.256-.002 1.996-.515 3.62-2.134 3.842-4.957.031-.394.031-13.185-.001-13.587-.236-3.007-2.087-4.74-4.526-5.091C18.89.029 18.778.005 15.91 0 5.737.005 3.507-.448 1.5 1.633z" fill="url(#ma)"/><path d="M11.998 3.139c-3.631 0-7.079-.323-8.396 3.057-.544 1.396-.465 3.209-.465 5.805 0 2.278-.073 4.419.465 5.804 1.314 3.382 4.79 3.058 8.394 3.058 3.477 0 7.062.362 8.395-3.058.545-1.41.465-3.196.465-5.804 0-3.462.191-5.697-1.488-7.375-1.7-1.7-3.999-1.487-7.374-1.487zm-.794 1.597c7.574-.012 8.538-.854 8.006 10.843-.189 4.137-3.339 3.683-7.211 3.683-7.06 0-7.263-.202-7.263-7.265 0-7.145.56-7.257 6.468-7.263zm5.524 1.471a1.063 1.063 0 100 2.126 1.063 1.063 0 000-2.126zm-4.73 1.243a4.55 4.55 0 10.001 9.101 4.55 4.55 0 00-.001-9.101zm0 1.597c3.905 0 3.91 5.908 0 5.908-3.904 0-3.91-5.908 0-5.908z" fill="#fff"/></svg><svg viewBox="0 0 512 512" id="instagram" xmlns="http://www.w3.org/2000/svg"><path d="M305 256c0 27.063-21.938 49-49 49s-49-21.938-49-49 21.938-49 49-49 49 21.938 49 49zm0 0"/><path d="M370.594 169.305a45.546 45.546 0 00-10.996-16.903 45.514 45.514 0 00-16.903-10.996c-5.18-2.011-12.96-4.406-27.293-5.058-15.504-.707-20.152-.86-59.402-.86-39.254 0-43.902.149-59.402.856-14.332.656-22.118 3.05-27.293 5.062a45.483 45.483 0 00-16.903 10.996 45.572 45.572 0 00-11 16.903c-2.011 5.18-4.406 12.965-5.058 27.297-.707 15.5-.86 20.148-.86 59.402 0 39.25.153 43.898.86 59.402.652 14.332 3.047 22.114 5.058 27.293a45.563 45.563 0 0010.996 16.903 45.514 45.514 0 0016.903 10.996c5.18 2.015 12.965 4.41 27.297 5.062 15.5.707 20.144.856 59.398.856 39.258 0 43.906-.149 59.402-.856 14.332-.652 22.118-3.047 27.297-5.062a48.68 48.68 0 0027.899-27.899c2.011-5.18 4.406-12.96 5.062-27.293.707-15.504.856-20.152.856-59.402 0-39.254-.149-43.902-.856-59.402-.652-14.332-3.047-22.118-5.062-27.297zM256 331.485c-41.691 0-75.488-33.794-75.488-75.485s33.797-75.484 75.488-75.484c41.688 0 75.484 33.793 75.484 75.484S297.688 331.484 256 331.484zm78.469-136.313c-9.742 0-17.64-7.899-17.64-17.64s7.898-17.641 17.64-17.641 17.64 7.898 17.64 17.64c-.004 9.742-7.898 17.64-17.64 17.64zm0 0"/><path d="M256 0C114.637 0 0 114.637 0 256s114.637 256 256 256 256-114.637 256-256S397.363 0 256 0zm146.113 316.605c-.71 15.649-3.199 26.333-6.832 35.684a75.164 75.164 0 01-42.992 42.992c-9.348 3.633-20.035 6.117-35.68 6.832-15.675.715-20.683.887-60.605.887-39.926 0-44.93-.172-60.61-.887-15.644-.715-26.331-3.199-35.68-6.832a72.018 72.018 0 01-26.038-16.957 72.044 72.044 0 01-16.953-26.035c-3.633-9.348-6.121-20.035-6.832-35.68-.723-15.68-.891-20.687-.891-60.609s.168-44.93.887-60.605c.71-15.649 3.195-26.332 6.828-35.684a72.013 72.013 0 0116.96-26.035 72.003 72.003 0 0126.036-16.957c9.352-3.633 20.035-6.117 35.684-6.832C211.07 109.172 216.078 109 256 109s44.93.172 60.605.89c15.649.712 26.332 3.196 35.684 6.825a72.061 72.061 0 0126.04 16.96 72.027 72.027 0 0116.952 26.036c3.637 9.352 6.121 20.035 6.836 35.684.715 15.675.883 20.683.883 60.605s-.168 44.93-.887 60.605zm0 0"/></svg><svg viewBox="0 0 470 470" id="medal" xmlns="http://www.w3.org/2000/svg"><path d="M429.591 418.378L367.368 268.16a7.5 7.5 0 10-13.858 5.74l56.251 135.801-51.309-14.867a7.497 7.497 0 00-8.656 3.586l-25.769 46.793-60.357-145.716c69.663-13.434 122.447-74.853 122.447-148.378C386.118 67.792 318.327 0 235 0S83.881 67.792 83.881 151.119c0 33.751 11.124 64.951 29.896 90.133L40.409 418.378a7.5 7.5 0 009.017 10.074l60.533-17.541 30.4 55.207a7.502 7.502 0 0013.499-.748l58.136-140.353a7.5 7.5 0 10-13.858-5.74l-52.165 125.936-25.767-46.793a7.5 7.5 0 00-8.657-3.586l-51.308 14.867 64.397-155.469c27.598 29.52 66.86 48.005 110.364 48.005 4.491 0 8.933-.209 13.325-.594l67.818 163.727a7.498 7.498 0 0013.498.748l30.401-55.207 60.533 17.541a7.499 7.499 0 009.016-10.074zM98.881 151.119C98.881 76.063 159.944 15 235 15s136.118 61.063 136.118 136.119S310.056 287.237 235 287.237 98.881 226.175 98.881 151.119z"/><path d="M321.659 122.961a7.5 7.5 0 00-5.892-5.079l-50.467-8.469-23.649-45.379a7.5 7.5 0 00-13.302 0l-23.65 45.379-50.466 8.469a7.499 7.499 0 00-4.111 12.651l35.85 36.515-7.54 50.614a7.5 7.5 0 0010.761 7.819L235 202.669l45.806 22.812a7.496 7.496 0 007.752-.645 7.5 7.5 0 003.01-7.173l-7.539-50.614 35.85-36.516a7.5 7.5 0 001.78-7.572zm-50.951 36.244a7.498 7.498 0 00-2.066 6.359l5.97 40.074-36.268-18.061a7.506 7.506 0 00-6.687 0l-36.268 18.061 5.97-40.074a7.497 7.497 0 00-2.066-6.359l-28.385-28.912 39.957-6.706a7.499 7.499 0 005.41-3.93L235 83.728l18.725 35.93a7.5 7.5 0 005.41 3.93l39.958 6.706-28.385 28.911z"/><path d="M348.612 158.684c-4.107-.549-7.877 2.343-8.42 6.45-6.957 52.507-52.18 92.104-105.192 92.104-58.514 0-106.119-47.604-106.119-106.119S176.486 45 235 45c53.013 0 98.235 39.596 105.192 92.104.543 4.107 4.32 7.001 8.42 6.45a7.5 7.5 0 006.449-8.42C347.121 75.198 295.506 30 235 30c-66.785 0-121.119 54.333-121.119 121.119S168.215 272.237 235 272.237c60.506 0 112.121-45.198 120.062-105.134a7.5 7.5 0 00-6.45-8.419z"/></svg><svg viewBox="0 0 492.004 492.004" id="next" xmlns="http://www.w3.org/2000/svg"><path d="M484.14 226.886L306.46 49.202c-5.072-5.072-11.832-7.856-19.04-7.856-7.216 0-13.972 2.788-19.044 7.856l-16.132 16.136c-5.068 5.064-7.86 11.828-7.86 19.04 0 7.208 2.792 14.2 7.86 19.264L355.9 207.526H26.58C11.732 207.526 0 219.15 0 234.002v22.812c0 14.852 11.732 27.648 26.58 27.648h330.496L252.248 388.926c-5.068 5.072-7.86 11.652-7.86 18.864 0 7.204 2.792 13.88 7.86 18.948l16.132 16.084c5.072 5.072 11.828 7.836 19.044 7.836 7.208 0 13.968-2.8 19.04-7.872l177.68-177.68c5.084-5.088 7.88-11.88 7.86-19.1.016-7.244-2.776-14.04-7.864-19.12z"/></svg><svg viewBox="0 0 511.998 511.998" id="pin" xmlns="http://www.w3.org/2000/svg"><path d="M167.974 350.473c21.086 29.73 42.138 56.32 56.09 73.446 2.031 2.492 3.934 4.804 5.777 7.031h-42.103c-4.713 0-8.533 3.82-8.533 8.533s3.82 8.533 8.533 8.533H324.27c4.713 0 8.533-3.82 8.533-8.533s-3.82-8.533-8.533-8.533h-42.103c1.843-2.227 3.746-4.54 5.786-7.031 13.943-17.067 34.987-43.716 56.081-73.446a749.756 749.756 0 0056.371-90.854c17.425-34.219 26.266-62.626 26.266-84.437a170.55 170.55 0 00-49.98-120.841 8.532 8.532 0 10-12.075 12.057 153.55 153.55 0 0144.988 108.783c0 19.098-8.209 44.902-24.405 76.689a732.814 732.814 0 01-55.091 88.747c-20.804 29.346-41.6 55.637-55.381 72.533a1511.437 1511.437 0 01-12.22 14.78 8.642 8.642 0 01-13.004 0 1513.93 1513.93 0 01-12.22-14.78c-13.781-16.887-34.577-43.179-55.381-72.533a732.814 732.814 0 01-55.091-88.747c-16.213-31.787-24.405-57.591-24.405-76.689-.005-61.809 36.959-117.627 93.867-141.747a154.58 154.58 0 01119.552 0 8.535 8.535 0 106.664-15.718c-86.898-36.652-187.056 4.062-223.735 90.948a170.04 170.04 0 00-13.414 66.517c0 21.811 8.841 50.219 26.266 84.48a749.234 749.234 0 0056.368 90.812z"/><path d="M256.003 98.151c4.713 0 8.533-3.82 8.533-8.533s-3.82-8.533-8.533-8.533c-40.71-.001-75.752 28.757-83.695 68.685-7.943 39.928 13.426 79.906 51.037 95.486 37.611 15.58 80.99 2.421 103.608-31.428 22.618-33.849 18.175-78.962-10.611-107.749a8.534 8.534 0 10-12.066 12.066c23.03 23.029 26.585 59.118 8.492 86.198-18.093 27.08-52.796 37.608-82.885 25.146-30.089-12.462-47.185-44.444-40.833-76.387s34.385-54.95 66.953-54.951zM508.786 469.957l-52.48-93.867a26.522 26.522 0 00-23.219-13.406H372.27c-4.713 0-8.533 3.82-8.533 8.533s3.82 8.533 8.533 8.533h60.817a9.464 9.464 0 018.337 4.659l52.463 93.867a7.68 7.68 0 01-.077 7.885 9.387 9.387 0 01-8.26 4.523H26.457a9.387 9.387 0 01-8.252-4.523 7.681 7.681 0 01-.077-7.885l52.463-93.867a9.454 9.454 0 018.328-4.659h60.817c4.713 0 8.533-3.82 8.533-8.533s-3.82-8.533-8.533-8.533H78.92a26.537 26.537 0 00-23.236 13.406L3.212 469.957a24.748 24.748 0 00.265 24.841 26.284 26.284 0 0022.98 12.954H485.55a26.282 26.282 0 0022.972-12.954 24.746 24.746 0 00.264-24.841z"/><path d="M418.137 405.351h-34.133a8.583 8.583 0 00-4.736 1.434l-25.6 17.067a8.535 8.535 0 009.472 14.2l23.424-15.633h31.573a8.533 8.533 0 008.533-8.533 8.533 8.533 0 00-8.533-8.535zM366.937 465.084a8.533 8.533 0 008.533 8.533h68.267c4.713 0 8.533-3.82 8.533-8.533s-3.82-8.533-8.533-8.533H375.47a8.533 8.533 0 00-8.533 8.533zM153.603 439.484a8.533 8.533 0 004.745-15.633l-25.6-17.067a8.586 8.586 0 00-4.745-1.434H93.87a8.533 8.533 0 000 17.066h31.573l23.45 15.633a8.516 8.516 0 004.71 1.435zM68.27 456.551c-4.713 0-8.533 3.82-8.533 8.533s3.82 8.533 8.533 8.533h68.267c4.713 0 8.533-3.82 8.533-8.533s-3.82-8.533-8.533-8.533H68.27z"/></svg><svg viewBox="0 0 470 470" id="rate" xmlns="http://www.w3.org/2000/svg"><path d="M235 148.009c40.806 0 74.004-33.198 74.004-74.005C309.004 33.198 275.806 0 235 0s-74.004 33.198-74.004 74.004c0 40.807 33.198 74.005 74.004 74.005zM235 15c32.535 0 59.004 26.469 59.004 59.004S267.535 133.009 235 133.009s-59.004-26.47-59.004-59.005S202.465 15 235 15zM235 178.009c59.812 0 108.922 46.69 112.793 105.539H174.46c-4.142 0-7.5 3.357-7.5 7.5s3.358 7.5 7.5 7.5h181.08a7.5 7.5 0 007.5-7.5c0-70.601-57.438-128.039-128.04-128.039s-128.04 57.438-128.04 128.039a7.5 7.5 0 007.5 7.5h30c4.142 0 7.5-3.357 7.5-7.5s-3.358-7.5-7.5-7.5h-22.254c3.872-58.849 52.983-105.539 112.794-105.539zM140.408 377.712l-41.143-6.905-19.281-36.995a7.5 7.5 0 00-13.302 0l-19.281 36.995-41.143 6.905a7.5 7.5 0 00-4.111 12.65l29.227 29.77-6.147 41.263a7.499 7.499 0 0010.761 7.819l37.344-18.597 37.344 18.597a7.504 7.504 0 007.751-.647 7.499 7.499 0 003.01-7.173l-6.147-41.263 29.227-29.77a7.499 7.499 0 00-4.109-12.649zm-38.437 34.577a7.5 7.5 0 00-2.066 6.359l4.577 30.723-27.805-13.847a7.498 7.498 0 00-6.687 0l-27.806 13.847 4.577-30.723a7.496 7.496 0 00-2.066-6.359l-21.762-22.166 30.634-5.142a7.502 7.502 0 005.41-3.931l14.356-27.546 14.356 27.546a7.502 7.502 0 005.41 3.931l30.634 5.142-21.762 22.166zM302.075 377.712l-41.143-6.905-19.281-36.995a7.5 7.5 0 00-13.302 0l-19.281 36.995-41.143 6.905a7.5 7.5 0 00-4.111 12.65l29.227 29.77-6.146 41.263a7.499 7.499 0 0010.761 7.819L235 450.617l37.344 18.597a7.504 7.504 0 007.751-.647 7.499 7.499 0 003.01-7.173l-6.146-41.263 29.227-29.77a7.499 7.499 0 00-4.111-12.649zm-38.437 34.577a7.5 7.5 0 00-2.066 6.359l4.576 30.723-27.805-13.847a7.5 7.5 0 00-6.686 0l-27.805 13.847 4.576-30.723a7.496 7.496 0 00-2.066-6.359L184.6 390.123l30.634-5.142a7.502 7.502 0 005.41-3.931L235 353.505l14.356 27.546a7.502 7.502 0 005.41 3.931l30.634 5.142-21.762 22.165zM469.633 382.791a7.5 7.5 0 00-5.892-5.079l-41.143-6.905-19.281-36.995a7.5 7.5 0 00-13.302 0l-19.281 36.995-41.143 6.905a7.5 7.5 0 00-4.111 12.65l29.227 29.77-6.147 41.263a7.499 7.499 0 0010.761 7.819l37.344-18.597 37.344 18.597a7.504 7.504 0 007.751-.647 7.499 7.499 0 003.01-7.173l-6.147-41.263 29.227-29.77a7.493 7.493 0 001.783-7.57zm-44.328 29.498a7.5 7.5 0 00-2.066 6.359l4.577 30.723-27.806-13.847a7.5 7.5 0 00-6.686 0l-27.805 13.847 4.577-30.723a7.496 7.496 0 00-2.066-6.359l-21.762-22.166 30.634-5.142a7.502 7.502 0 005.41-3.931l14.356-27.546 14.356 27.546a7.502 7.502 0 005.41 3.931l30.634 5.142-21.763 22.166z"/><path d="M235 108.009c9.831 0 19.184-4.272 25.66-11.721a7.5 7.5 0 00-11.32-9.842c-3.625 4.171-8.853 6.563-14.34 6.563s-10.714-2.392-14.34-6.563a7.5 7.5 0 00-11.32 9.842c6.476 7.448 15.829 11.721 25.66 11.721z"/></svg><svg viewBox="0 0 56.966 56.966" id="search" xmlns="http://www.w3.org/2000/svg"><path d="M55.146 51.887L41.588 37.786A22.926 22.926 0 0046.984 23c0-12.682-10.318-23-23-23s-23 10.318-23 23 10.318 23 23 23c4.761 0 9.298-1.436 13.177-4.162l13.661 14.208c.571.593 1.339.92 2.162.92.779 0 1.518-.297 2.079-.837a3.004 3.004 0 00.083-4.242zM23.984 6c9.374 0 17 7.626 17 17s-7.626 17-17 17-17-7.626-17-17 7.626-17 17-17z"/></svg><svg viewBox="-38 0 512 512.001" id="shield" xmlns="http://www.w3.org/2000/svg"><path d="M217.996 158.457c-53.793 0-97.555 43.762-97.555 97.55 0 53.794 43.762 97.555 97.555 97.555 53.79 0 97.55-43.761 97.55-97.554 0-53.79-43.76-97.551-97.55-97.551zm57.918 79.18l-69.887 69.886a14.984 14.984 0 01-10.625 4.403 14.96 14.96 0 01-10.62-4.403l-26.708-26.707c-5.867-5.863-5.867-15.375 0-21.242 5.863-5.867 15.375-5.867 21.242 0l16.086 16.086 59.27-59.265c5.863-5.868 15.375-5.868 21.242 0 5.867 5.863 5.867 15.375 0 21.242zm0 0"/><path d="M435.488 138.918l-.015-.398a533.678 533.678 0 01-.461-15.91c-.418-28.231-22.86-51.583-51.094-53.16-58.867-3.286-104.406-22.481-143.316-60.407l-.332-.316c-12.692-11.637-31.836-11.637-44.532 0l-.332.316c-38.91 37.926-84.449 57.121-143.316 60.41C23.86 71.027 1.414 94.38.996 122.613a527.685 527.685 0 01-.46 15.907l-.024.925C-.633 199.473-2.055 274.18 22.937 341.988c13.743 37.29 34.555 69.703 61.856 96.348 31.094 30.344 71.82 54.434 121.047 71.598a37.432 37.432 0 004.96 1.351c2.391.477 4.798.715 7.204.715 2.406 0 4.816-.238 7.203-.715a37.463 37.463 0 004.98-1.36c49.168-17.195 89.852-41.296 120.918-71.636 27.29-26.652 48.102-59.074 61.856-96.371 25.086-68.012 23.668-142.86 22.527-203zM217.996 383.605c-70.36 0-127.598-57.238-127.598-127.597 0-70.36 57.239-127.598 127.598-127.598 70.356 0 127.598 57.238 127.598 127.598s-57.242 127.597-127.598 127.597zm0 0"/></svg><svg viewBox="0 -10 511.991 511" id="star" xmlns="http://www.w3.org/2000/svg"><path d="M510.652 185.883a27.177 27.177 0 00-23.402-18.688l-147.797-13.418-58.41-136.75C276.73 6.98 266.918.497 255.996.497s-20.738 6.483-25.023 16.53l-58.41 136.75-147.82 13.418c-10.837 1-20.013 8.34-23.403 18.688a27.25 27.25 0 007.937 28.926L121 312.773 88.059 457.86c-2.41 10.668 1.73 21.7 10.582 28.098a27.087 27.087 0 0015.957 5.184 27.14 27.14 0 0013.953-3.86l127.445-76.203 127.422 76.203a27.197 27.197 0 0029.934-1.324c8.851-6.398 12.992-17.43 10.582-28.098l-32.942-145.086 111.723-97.964a27.246 27.246 0 007.937-28.926zM258.45 409.605"/></svg><svg viewBox="0 -10 511.987 511" id="star-big" xmlns="http://www.w3.org/2000/svg"><path d="M114.594 491.14c-5.61 0-11.18-1.75-15.934-5.187a27.223 27.223 0 01-10.582-28.094l32.938-145.09L9.312 214.81a27.188 27.188 0 01-7.976-28.907 27.208 27.208 0 0123.402-18.71l147.797-13.419L230.97 17.027C235.277 6.98 245.089.492 255.992.492s20.715 6.488 25.024 16.512l58.433 136.77 147.774 13.417c10.882.98 20.054 8.344 23.425 18.711 3.372 10.368.254 21.739-7.957 28.907L390.988 312.75l32.938 145.086c2.414 10.668-1.727 21.7-10.578 28.098-8.832 6.398-20.61 6.89-29.91 1.3l-127.446-76.16-127.445 76.203c-4.309 2.559-9.11 3.864-13.953 3.864zm141.398-112.874c4.844 0 9.64 1.3 13.953 3.859l120.278 71.938-31.086-136.942a27.21 27.21 0 018.62-26.516l105.473-92.5-139.543-12.671a27.18 27.18 0 01-22.613-16.493L255.992 39.895 200.844 168.96c-3.883 9.195-12.524 15.512-22.547 16.43L38.734 198.062l105.47 92.5c7.554 6.614 10.858 16.77 8.62 26.54l-31.062 136.937 120.277-71.914c4.309-2.559 9.11-3.86 13.953-3.86zm-84.586-221.848s0 .023-.023.043zm169.13-.063l.023.043c0-.023 0-.023-.024-.043zm0 0"/></svg><svg viewBox="0 0 512 512" id="support" xmlns="http://www.w3.org/2000/svg"><path d="M366 396c-5.52 0-10 4.48-10 10s4.48 10 10 10 10-4.48 10-10-4.48-10-10-10z"/><path d="M390.622 363.663l-47.53-15.84-17.063-34.127c15.372-15.646 26.045-36.348 29.644-57.941L357.801 243H376c16.542 0 30-13.458 30-30v-63C406 67.29 338.71 0 256 0c-82.922 0-150 67.097-150 150v63c0 13.036 8.361 24.152 20 28.28V253c0 16.542 13.458 30 30 30h8.782a108.487 108.487 0 0016.774 25.974 103.947 103.947 0 004.406 4.741l-17.054 34.108-47.531 15.841C66.112 382.092 26 440.271 26 502c0 5.523 4.477 10 10 10h440c5.522 0 10-4.477 10-10 0-61.729-40.111-119.908-95.378-138.337zM386 213c0 5.514-4.486 10-10 10h-15.262c2.542-19.69 4.236-40.643 4.917-61.28.02-.582.036-1.148.054-1.72H386v53zm-250 10c-5.514 0-10-4.486-10-10v-53h20.298c.033 1.043.068 2.091.107 3.146l.004.107v.009c.7 20.072 2.372 40.481 4.856 59.737H136V223zm20 40c-5.514 0-10-4.486-10-10v-10h8.198l2.128 12.759a105.57 105.57 0 001.482 7.241H156zm-9.983-123H126.38C131.445 72.979 187.377 20 256 20c68.318 0 124.496 52.972 129.619 120h-19.635c-.72-55.227-45.693-100-101.033-100h-17.9c-55.339 0-100.315 44.773-101.034 100zM247.05 60h17.9c44.809 0 81.076 36.651 81.05 81.41 0 3.147-.025 5.887-.078 8.38l-.001.098-12.508-1.787c-33.98-4.852-66.064-20.894-90.342-45.172A10.003 10.003 0 00236 100c-26.856 0-52.564 12.236-69.558 32.908C170.63 92.189 205.053 60 247.05 60zm-68.51 203c-5.006-16.653-10.734-65.653-12-97.053l13.459-17.946c12.361-16.476 31.592-26.713 52.049-27.888 26.917 25.616 61.739 42.532 98.537 47.786l14.722 2.104c-.984 20.885-2.995 41.843-5.876 61.118l-.003.02c-.916 6.197-1.638 10.185-3.482 21.324-5.296 31.765-28.998 60.49-60.287 68.313a81.338 81.338 0 01-39.313 0c-19.537-4.884-37.451-18.402-49.012-37.778h20.386c4.128 11.639 15.243 20 28.28 20h20c16.575 0 30-13.424 30-30 0-16.542-13.458-30-30-30h-20c-13.327 0-24.278 8.608-28.297 20H178.54zm56.619 78.016A101.171 101.171 0 00256 343.2c5.471 0 10.943-.458 16.353-1.346l-17.67 18.687-19.524-19.525zm5.776 34.063l-31.718 33.542a381.013 381.013 0 01-22.389-51.917l11.911-23.822 42.196 42.197zm70.631-45.585l13.604 27.209a380.908 380.908 0 01-22.392 51.933l-33.948-33.948 42.736-45.194zM226 273c0-5.521 4.478-10 10-10h20c5.514 0 10 4.486 10 10 0 5.522-4.479 10-10 10h-20c-5.514 0-10-4.486-10-10zM46.4 492c3.963-49.539 36.932-94.567 81.302-109.363l42.094-14.028a400.869 400.869 0 0028.463 61.74l.056.101.001.002a400.974 400.974 0 0027.372 41.799L237.99 492H46.4zm209.6-8.914l-13.562-21.773a10.133 10.133 0 00-.486-.711 381.284 381.284 0 01-22.532-33.662l35.663-37.714 37.578 37.578A380.863 380.863 0 01270.05 460.6c-.49.653.205-.376-14.05 22.486zM274.01 492l12.301-19.748a400.826 400.826 0 0027.564-42.132c.05-.088.097-.178.147-.266l.018-.032a400.543 400.543 0 0028.164-61.213l42.093 14.028c44.371 14.796 77.34 59.824 81.303 109.363H274.01z"/><path d="M435.546 451.531c-6.683-13.377-16.472-25.261-28.309-34.367-4.378-3.369-10.656-2.55-14.023 1.828-3.368 4.378-2.549 10.656 1.828 14.024 9.454 7.273 17.272 16.766 22.611 27.453 2.473 4.949 8.483 6.941 13.415 4.477 4.94-2.468 6.945-8.474 4.478-13.415z"/></svg><svg viewBox="0 0 493.349 493.349" id="truck" xmlns="http://www.w3.org/2000/svg"><path d="M487.932 51.1c-3.613-3.612-7.905-5.424-12.847-5.424h-292.36c-4.948 0-9.233 1.812-12.847 5.424-3.615 3.617-5.424 7.902-5.424 12.85v54.818h-45.683c-5.14 0-10.71 1.237-16.705 3.711-5.996 2.478-10.801 5.518-14.416 9.135l-56.532 56.531c-2.473 2.474-4.612 5.327-6.424 8.565-1.807 3.23-3.14 6.14-3.997 8.705-.855 2.572-1.477 6.089-1.854 10.566-.378 4.475-.62 7.758-.715 9.853-.091 2.092-.091 5.71 0 10.85.096 5.142.144 8.47.144 9.995v91.36c-4.947 0-9.229 1.807-12.847 5.428C1.809 347.076 0 351.363 0 356.312c0 2.851.378 5.376 1.14 7.562.763 2.19 2.046 3.949 3.858 5.284a92.406 92.406 0 004.709 3.285c1.335.855 3.571 1.424 6.711 1.711s5.28.479 6.423.575c1.143.089 3.568.089 7.279 0 3.715-.096 5.855-.144 6.427-.144h18.271c0 20.17 7.139 37.397 21.411 51.674 14.277 14.274 31.501 21.413 51.678 21.413 20.175 0 37.401-7.139 51.675-21.413 14.277-14.276 21.411-31.504 21.411-51.674H310.63c0 20.17 7.139 37.397 21.412 51.674 14.271 14.274 31.498 21.413 51.675 21.413 20.181 0 37.397-7.139 51.675-21.413 14.277-14.276 21.412-31.504 21.412-51.674.568 0 2.711.048 6.42.144 3.713.089 6.14.089 7.282 0 1.144-.096 3.289-.288 6.427-.575 3.139-.287 5.373-.855 6.708-1.711s2.901-1.95 4.709-3.285c1.81-1.335 3.097-3.094 3.856-5.284.77-2.187 1.143-4.712 1.143-7.562V63.953c.004-4.949-1.803-9.229-5.417-12.853zM153.597 400.28c-7.229 7.23-15.797 10.854-25.694 10.854-9.898 0-18.464-3.62-25.697-10.854-7.233-7.228-10.848-15.797-10.848-25.693 0-9.897 3.619-18.47 10.848-25.701 7.232-7.228 15.798-10.848 25.697-10.848 9.897 0 18.464 3.617 25.694 10.848 7.236 7.231 10.853 15.804 10.853 25.701 0 9.896-3.617 18.465-10.853 25.693zm10.853-171.877H54.814v-8.562c0-2.475.855-4.569 2.568-6.283l55.674-55.672c1.712-1.714 3.809-2.568 6.283-2.568h45.111v73.085zM409.41 400.28c-7.23 7.23-15.797 10.854-25.693 10.854-9.9 0-18.47-3.62-25.7-10.854-7.231-7.228-10.849-15.797-10.849-25.693 0-9.897 3.617-18.47 10.849-25.701 7.23-7.228 15.8-10.848 25.7-10.848 9.896 0 18.463 3.617 25.693 10.848 7.231 7.235 10.852 15.804 10.852 25.701 0 9.896-3.614 18.465-10.852 25.693z"/></svg><svg viewBox="0 0 512.007 512.007" id="wallet" xmlns="http://www.w3.org/2000/svg"><path d="M466.004 176.007h-82V36.033c0-12.568-6.383-24.016-17.074-30.624-10.689-6.607-23.783-7.197-35.025-1.576a17.33 17.33 0 00-.428.222L34.697 163.777a65.863 65.863 0 00-34.693 58.07v244.16c0 25.364 20.636 46 46 46h420c25.364 0 46-20.636 46-46v-244c0-25.364-20.636-46-46-46zm-119 0H99.337c-5.195 0-6.944-6.941-2.37-9.403L346.355 32.388c1.587-.73 2.911-.276 3.751.243.866.535 1.897 1.56 1.897 3.403v134.974a4.998 4.998 0 01-4.999 4.999zm69 200c-17.645 0-32-14.355-32-32s14.355-32 32-32 32 14.355 32 32-14.356 32-32 32z"/></svg></svg>